<?xml version="1.0" standalone="no"?>
<!DOCTYPE svg PUBLIC "-//W3C//DTD SVG 1.1//EN" "http://www.w3.org/Graphics/SVG/1.1/DTD/svg11.dtd" >
<svg xmlns="http://www.w3.org/2000/svg">
<metadata>
This is a custom SVG webfont generated by Font Squirrel.
Copyright   : 1996 Ethan Dunham   Fonthead Design
</metadata>
<defs>
<font id="BadDogRegular" horiz-adv-x="1079" >
<font-face units-per-em="2048" ascent="1638" descent="-410" />
<missing-glyph horiz-adv-x="550" />
<glyph unicode=" "  horiz-adv-x="550" />
<glyph unicode="&#x09;" horiz-adv-x="550" />
<glyph unicode="&#xa0;" horiz-adv-x="550" />
<glyph unicode="!" horiz-adv-x="442" d="M0 113q0 4 31 32q12 51 22 105q18 66 68 65q33 0 76 -35.5t43 -80.5q0 -57 -66 -172q-14 -27 -61 -27q-72 0 -105 90q-8 19 -8 23zM84 573q0 18 11 61.5t48 223.5q27 135 62 219q12 27 19 86.5t22 87.5q29 59 102 60q68 0 72 -27v-45q0 -102 -41 -256q-55 -209 -64 -254 q-2 -57 -6 -117q-6 -66 -55 -96q-33 -18 -66 -18q-104 -1 -104 75z" />
<glyph unicode="&#x22;" horiz-adv-x="423" d="M0 1196q0 37 25.5 61.5t62.5 24.5t51 -31q29 -66 29 -196q0 -35 -31 -63.5t-65 -28.5q-39 0 -45 34q0 -2 0 64q0 25 -13.5 68.5t-13.5 66.5zM229 1010q0 20 9 53q6 41 8 53q0 41 2 82q0 49 20 76q27 37 74 37q18 0 23 -15q27 -76 26 -155q0 -61 -26 -127 q-29 -76 -82.5 -76t-53.5 72z" />
<glyph unicode="#" horiz-adv-x="1189" d="M0 750q0 43 43 68.5t88 25.5q10 0 32.5 -2t35.5 -2q59 0 78.5 45t21.5 139q2 111 10 147q10 45 90 52q39 2 35 2q16 0 27 -14l20 -27q4 -18 4 -41q0 -37 -16 -107.5t-16 -107.5q0 -16 2 -31q0 -2 6 -15.5t14 -13.5q27 0 103 13q63 12 192 28q14 47 14 107q0 27 -3 77 t-3 74q0 143 76 144q37 0 62.5 -24.5t25.5 -61.5q0 -33 -9 -103.5t-9 -105.5q0 -70 47 -86q18 -8 104 -8q94 0 94 -76q0 -74 -90 -74q-12 0 -40.5 2t-43.5 2q-90 0 -90 -78q0 -61 43 -61q12 0 37 6t39 6q55 0 55 -57q0 -14 -8 -25q-12 0 -20 -8q4 -8 6 -16t14 -4 q-20 -33 -64 -43.5t-85 -18.5q-12 -8 -29 -26q-4 -12 -4 -62q0 -51 16.5 -153.5t16.5 -155.5q0 -41 -9 -76q-16 -4 -32 -4q-80 0 -105 72q-27 82 -26 202q0 45 6 156q-39 6 -80 6q-57 0 -242 -35l-20 -178q-14 -109 -43 -172q-12 -31 -43 -31q-33 0 -64 30t-37 63 q-2 14 -2 28q0 31 14.5 89.5t14.5 88.5q0 72 -51 72q-12 0 -40 -4t-40 -4q-29 0 -47 12q-20 2 -21 19q0 8 10.5 10t10.5 6l-41 16q-29 12 -29 25q0 10 8 27q20 39 68 47q12 2 84 2q61 0 88 20q16 10 16 51q0 72 -51 72q-37 0 -73.5 -28.5t-49.5 -28.5q-8 0 -20 8 q-76 58 -76 109zM438 633q0 -45 24.5 -53.5t86.5 -8.5q88 0 186 37q35 12 35 80q0 41 -20 49q-41 16 -105 17q-49 0 -106 -17q-70 -20 -90 -53q-11 -18 -11 -51z" />
<glyph unicode="$" horiz-adv-x="598" d="M0 817q0 123 150 281l55 57q4 6 4 62q0 39 25.5 66.5t62.5 27.5q31 0 57.5 -17.5t26.5 -46.5q0 -16 -10.5 -47t-10.5 -39q0 -33 21 -41q154 -63 154 -123q0 -25 -20.5 -46t-45.5 -21q-27 0 -86 32.5t-90 32.5q-41 0 -79 -46t-38 -89q0 -33 31 -52.5t116 -29.5t119 -30 q6 -4 31 -23q68 -55 98 -107q18 -31 19 -59q0 -47 -53 -123q-23 -31 -79.5 -63.5t-70.5 -57.5q-27 -43 -44 -150.5t-54 -150.5q-10 -14 -35 -14q-41 0 -57 14q-4 18 -14.5 47t-10.5 54q0 27 10.5 77t10.5 76q0 31 -9.5 47.5t-93.5 57.5q-76 37 -76 84q0 33 27 59.5t59 26.5 q20 0 81 -43t108 -43q37 0 77 30.5t40 65.5q0 16 -11 31q-39 53 -149 61q-121 10 -162 45q-84 72 -84 127z" />
<glyph unicode="%" horiz-adv-x="1513" d="M0 965q0 100 55 209q12 25 99 67q20 10 18 10q8 0 11 -8t12 -8q-2 0 10 10q6 6 18 6h19q106 -23 204.5 -92t157.5 -162q20 -33 21 -75q0 -74 -43 -150q-70 -119 -244 -119q-233 0 -320 219q-18 44 -18 93zM184 965q0 -23 10 -34l23 -28q31 -37 41 -45q25 -23 53 -31 q23 -8 51 -8q82 0 82 45q0 37 -77.5 108.5t-112.5 71.5q-27 0 -48.5 -26t-21.5 -53zM612 55q2 20 9 68q55 459 186 799q12 33 67 159q10 25 21 86q8 55 25 84q35 59 73 60q18 0 47 -23.5t43 -27.5l-147 -435q-80 -254 -100 -446q-10 -94 -33 -225q-4 -27 -15 -76 q-18 -78 -151 -78q-25 0 -25 55zM993 299q0 33 13 133q14 131 153 256q16 25 55 25q72 0 183.5 -139.5t111.5 -241.5q0 -70 -36 -142q-43 -76 -105 -96q-76 -27 -100 -26q-90 0 -201 71q-74 49 -74 160zM1163 397q0 -51 27 -96q31 -55 78 -55q25 0 43 19.5t18 45.5 q0 45 -69 129l-19 33q-14 25 -20 25q-2 0 -7 -2q-51 -33 -51 -99z" />
<glyph unicode="&#x26;" horiz-adv-x="544" d="M0 600q0 43 14 88q4 14 37 68q31 47 31 57q0 14 -27.5 50t-27.5 59q0 25 36 100q16 33 68.5 62.5t69.5 52.5q6 10 6 71q0 43 27.5 73t70.5 30q33 0 57.5 -20.5t24.5 -53.5q0 -16 -7 -48t-7 -48q0 -47 73.5 -69.5t73.5 -70.5q-6 -23 -28 -43q-43 -18 -72 -18 q-23 0 -43.5 11.5t-67.5 11.5q-35 0 -53 10q-6 4 -8 4q-10 0 -19.5 -17.5t-9.5 -29.5q0 -63 45 -64q63 0 92 -8l29 -29q4 -10 4 -22q0 -57 -61 -78q-39 -2 -107 -27q-43 -35 -43 -90q0 -66 49 -95.5t52 -29.5l31 14q32 13 57 13q31 0 69 -16q49 -20 49 -45q0 -8 -8 -21 q-14 -27 -72.5 -40t-69.5 -39.5t-11 -69.5q0 -23 5 -69t5 -71q0 -43 -15 -86q-18 -57 -53 -57q-18 0 -39 4q-6 0 -26 23q-20 16 -37 12q8 43 8 90q0 74 -29 238q-6 33 -45 61q-51 39 -65 55q-33 45 -33 117z" />
<glyph unicode="'" horiz-adv-x="352" d="M231 1010q0 20 7 53q8 41 8 53q2 41 2 82q2 49 22 76q25 37 72 37q18 0 23 -15q27 -76 26 -155q0 -61 -26 -127q-29 -76 -80 -76q-54 0 -54 72z" />
<glyph unicode="(" horiz-adv-x="524" d="M0 442q0 229 133 531q84 186 352 336q4 2 9 2q88 0 88 -82q0 -33 -19 -45l-24 -13q-43 -23 -82 -53q-102 -86 -164 -250q-31 -80 -82 -293q-10 -51 -10 -100q0 -162 96 -268l84 -62q53 -39 53 -82q0 -31 -98 -59q-14 -4 -35 -4q-98 0 -182 121q-119 169 -119 321z" />
<glyph unicode=")" horiz-adv-x="526" d="M0 1227q0 29 27.5 56.5t56.5 27.5q27 0 51 -21q205 -170 295 -399q55 -142 55 -289v-10v-17q-4 -293 -252 -538q-37 -37 -102 -37q-25 0 -48.5 14.5t-23.5 38.5q0 8 7 19q25 51 106 147q78 90 102 154q49 125 50 202q0 119 -50 238q-37 90 -124 201q-115 143 -142 186 q-8 15 -8 27z" />
<glyph unicode="*" horiz-adv-x="833" d="M0 768q0 57 61 78q27 4 78 14q70 27 211 66q-12 47 -90 118q-74 66 -74 89q0 20 29 35.5t53 15.5q23 0 36 -9.5t52 -82.5q31 -57 72 -58q8 0 14 2q29 35 64 101q41 80 57 102q45 70 86 70q37 0 43 -31q8 -43 19 -51q-27 -27 -131 -209q-2 -4 -2 -8q0 -8 17 -12.5 t17 -12.5q12 16 47 16t58 17q8 4 20 4q27 0 39 -18q29 -37 29 -56q0 -14 -8 -22q-23 -25 -103 -36t-108 -36q20 -35 83.5 -92t82.5 -96q6 -14 6 -17q0 -57 -21 -65q-16 -14 -39 -15q-10 0 -14 2q-25 18 -164 191q-14 18 -36.5 18t-28.5 -24q-2 -31 -21 -86q-8 -16 -24 -54 l-37 -94q-25 -51 -62 -76q-16 -10 -32 -10q-33 0 -42.5 30t-31.5 26q8 41 65 133q49 80 47 139v10q-6 2 -14 2q-35 0 -102.5 -32.5t-102.5 -32.5q-41 0 -69 30q-2 0 -15.5 10.5t-13.5 16.5z" />
<glyph unicode="+" horiz-adv-x="532" d="M0 651q0 59 72 70q80 10 91 36.5t11 155.5q0 47 14 91q18 59 54 59q20 0 44.5 -13.5t26.5 -31.5q8 -53 9 -86q0 -29 -4.5 -85t-4.5 -85q88 -14 256 -14q-6 -8 -6 -15q0 -10 13.5 -22.5t13.5 -20.5q0 -37 -66 -69q-20 -12 -51 -13q-14 0 -45 4t-45 4q-39 0 -55 -28 q-16 -35 -19 -107q-2 -84 -10 -110q-16 -55 -72 -74q0 27 -36.5 53.5t-36.5 48.5q0 14 4 46t4 49q0 51 -15 94q-29 -12 -57 -13q-8 0 -88 13v16v25q-2 14 -2 22z" />
<glyph unicode="," horiz-adv-x="430" d="M-18 -154q0 45 76.5 79t76.5 85q0 20 -20 25q-61 8 -78 67q-10 39 -10 68q0 43 32 72q2 2 33 63q41 74 103 74q10 0 22 -6q53 -23 98 -74q49 -57 50 -109q0 -23 -24 -58.5t-26 -55.5q-4 -39 -6 -76q-6 -51 -22 -70q-66 -76 -90 -96q-57 -49 -119 -49q-96 0 -96 61z" />
<glyph unicode="-" horiz-adv-x="759" d="M-6 623q0 45 45 75q35 25 90 25q18 0 58 -3t61 -3q53 0 160.5 8t162.5 8q33 0 62 -28.5t29 -59.5q0 -35 -44 -49q-141 -45 -317 -45q-174 0 -283 39q-24 8 -24 33z" />
<glyph unicode="." horiz-adv-x="405" d="M-4 117q0 68 90 147q29 23 47 47q27 31 66 31q41 0 84 -42t53 -83q4 -16 4 -47q0 -74 -52 -122t-126 -48q-53 0 -107 31q-59 37 -59 86z" />
<glyph unicode="/" horiz-adv-x="679" d="M0 154q12 4 39 22q57 96 162 295q37 78 180 350q115 217 170 357l30 80q19 52 76 53q41 0 70 -33t29 -76q0 -37 -13 -65l-53 -93l-520 -1038q-18 -6 -37 -6q-45 0 -82 24.5t-37 67.5q0 18 9 37q-9 7 -23 25z" />
<glyph unicode="0" d="M6 487q0 238 164 525q170 299 385 299q43 0 53 -4q16 -14 60 -39q37 -12 108 -39q209 -109 273 -377q25 -104 24 -205q0 -297 -192 -502q-51 -55 -80 -75q-41 -27 -152 -50q-100 -18 -164 -18q-211 0 -345 138t-134 347zM209 479q0 -203 160 -289q68 -35 141 -34 q176 0 278 166q86 137 86 315q0 279 -217 432q-72 51 -135 51q-127 0 -241 -315q-72 -195 -72 -326z" />
<glyph unicode="1" d="M285 1012q0 29 37 80q70 92 167 153q109 66 216 66q43 0 79 -11q10 -86 11 -188q0 -90 -29 -467q-4 -158 -6 -315q-8 -201 -62 -301q-14 -29 -80 -29q-59 0 -69 47q-2 6 -2 96q0 127 32.5 381t32.5 381q0 84 -12 178q-59 0 -92 -22q-14 -10 -66 -64q-14 -16 -26 -22 q-20 -10 -56 -10q-75 0 -75 47z" />
<glyph unicode="2" d="M74 172q0 51 86 61q29 2 81 7.5t72 21.5q170 145 306 668q14 55 14 61q0 23 -14.5 53.5t-34.5 30.5q-14 0 -49 -8q-74 -18 -158 -96q-98 -90 -146 -111q-12 -6 -26.5 -6t-77.5 49q-16 12 -16 31q0 35 18 55q12 14 90 82q104 94 191 133q102 47 225 47h49 q53 -4 106.5 -32.5t57.5 -67.5v-25q0 -199 -82 -442q-82 -250 -207 -414q37 -61 96 -69q10 1 22 0q53 0 138 -15q23 -8 67 -9t62 -7q61 -29 62 -84v-8q-25 -70 -144 -70q-41 0 -90 12q-133 29 -213 29q-29 0 -51 -2q-63 -8 -84 -78q-10 -31 -10 -121q-2 -74 -13 -100 q-16 -45 -71 -45q-74 0 -127 49q-29 29 -29 86q0 47 25 99q12 25 12 43q0 43 -78 98q-59 43 -59 94z" />
<glyph unicode="3" d="M106 1151q0 49 57.5 77.5t158.5 43.5q147 23 163 26q53 12 99 13q100 0 184 -49q96 -53 96 -136q0 -49 -30 -118q-8 -16 -72 -131q211 -225 211 -459q0 -184 -154 -303q-143 -115 -340 -115q-205 0 -338 127q-25 23 -24 51q0 39 34.5 71t75.5 32q33 0 56 -23 q84 -80 217 -80q117 0 192 62q84 68 84 182q0 80 -44 167t-116 122q-20 12 -43 12q-20 0 -59 -11.5t-57 -11.5q-33 0 -56.5 28t-23.5 63q0 63 47 79q70 25 131 70q80 59 80 117q0 45 -47 73q-41 23 -90 23q-76 0 -234 -55q-41 -14 -74 -15q-84 0 -84 68z" />
<glyph unicode="4" d="M147 641q0 109 29 266l49 267q2 18 8 57q6 29 103 29q20 0 37 -7q10 -4 22.5 -21.5t12.5 -27.5v-4q-12 -55 -19 -201q-8 -127 -29 -196q-4 -12 -4 -25q0 -29 21.5 -52.5t52.5 -23.5q25 0 39 21q61 82 80 248l29 268q6 31 37.5 51.5t68.5 20.5t64.5 -20.5t27.5 -49.5 q0 -33 -49 -194q-37 -119 -37 -193q0 -59 21 -111q6 -16 28 -20q4 -2 15 -2q18 0 53 4t53 4q23 0 47.5 -21.5t24.5 -41.5q0 -31 -90 -54q-68 -16 -84 -22q-51 -18 -68 -49q-51 -88 -51 -240q0 -37 4 -111.5t4 -111.5q0 -53 -13 -65.5t-71 -12.5q-70 0 -82 43q-16 63 -16 168 q0 33 2 97.5t2 97.5q0 88 -14 167q-29 4 -43 5q-31 0 -92.5 -9.5t-92.5 -9.5q-80 0 -80 82z" />
<glyph unicode="5" d="M25 221q0 61 69 62q55 0 103 -23q8 -4 22 -20q27 -27 62 -39q158 -57 225 -58q66 0 115 35q217 154 217 297q0 31 -17 70q-25 63 -96 100q-33 16 -135 45q-150 43 -189 43q-59 0 -87.5 -19.5t-41.5 -72.5q-2 -14 -22 -35q-49 -14 -78 -14q-86 0 -86 119q0 84 113 272 q72 119 71 301q0 10 13 14q39 12 96 13q51 0 182 -37q47 -14 191 -21q125 -6 182 -36q31 -16 31 -48q0 -63 -88 -63q-51 0 -150.5 16.5t-151.5 16.5q-43 0 -73 -9q-43 -10 -70 -71q-23 -49 -22 -92q0 -55 39 -74q33 -18 118 -47q236 -78 238 -78q131 -55 199 -143 q51 -70 51 -154q0 -121 -105 -246q-92 -109 -217 -178q-88 -45 -196 -45q-143 0 -371 94q-29 10 -85 38t-56 87z" />
<glyph unicode="6" d="M68 791q0 45 104 69q68 8 180 41q68 35 123 143l84 179q49 88 133 88q41 0 84 -19q51 -23 51 -57q0 -8 -6 -18l-71 -117q-82 -133 -146 -252q408 -236 408 -465q0 -63 -27 -127q-51 -125 -164.5 -190.5t-255.5 -65.5q-115 0 -215 43q-68 29 -117 88q-53 68 -53 135 q0 61 45 180q47 127 47 187q0 45 -57 55l-84 8q-20 8 -41.5 40t-21.5 55zM346 283q0 -61 39 -111q45 -57 119 -57q111 0 224.5 96t113.5 192q0 150 -187 246q-53 29 -98 29q-74 0 -102 -80q0 -2 -66 -156q-43 -102 -43 -159z" />
<glyph unicode="7" d="M162 1044q0 10 4 27q8 41 57 49q41 4 87 10.5t177 55.5q18 8 35 69q16 55 70 56q31 0 80 -38t78 -40q45 -4 74 -22l59 -33q35 -23 35 -50q0 -43 -48 -65q-23 -10 -59 -10h-37q-23 2 -35 2q-31 0 -51 -6q-35 -268 -115 -613q-70 -309 -69 -295v-28q2 -20 2 -31 q0 -82 -96 -82q-18 0 -45 4q-18 2 -47 22.5t-29 39.5q0 8 12 77q20 117 80.5 354.5t83.5 358.5q18 106 18 98q0 39 -53 39q-29 0 -83 -17.5t-83 -17.5q-102 0 -102 86z" />
<glyph unicode="8" d="M102 281q0 193 220 397q-98 98 -99 219q0 162 121 320q72 94 209 94q66 0 221 -51q66 -20 80 -27q43 -20 68 -51q55 -74 55 -168q0 -143 -143 -322l-5 -6q-10 -12 -10 -29q0 -20 47 -75h2q0 -6 -2 -18.5t-2 -24.5l27 -21q2 -10 2 -104q0 -248 -139 -320 q-186 -94 -310 -94q-33 0 -88 10q-254 48 -254 271zM299 274q0 -154 133 -153q123 0 207 86t84 207q0 74 -29 125q-33 66 -100 65q-74 0 -150 -55q-145 -107 -145 -275zM410 877q0 -68 49 -108t114 -40q86 0 144 84q29 41 76 158q12 33 12 57q0 31 -17.5 66.5t-46.5 42.5 q-12 2 -36 10q-100 37 -117 37q-27 0 -53 -15q-125 -59 -125 -292z" />
<glyph unicode="9" d="M186 823q0 164 133 389q59 98 211 99q45 0 95.5 -10.5t156.5 -38.5q88 -31 88 -86q0 -2 -2 -9v-8q0 -12 21 -20q-12 -31 -29 -97q-2 -14 -6 -198q-2 -119 -25 -195q-31 -123 -98 -366q-35 -109 -115 -191q-92 -92 -196 -92q-90 0 -137 74l2 4q4 8 10 26q31 10 92 25 q129 18 180 180q10 35 33 133q16 78 45 142q-53 0 -127 -4.5t-102 -4.5q-139 0 -184.5 76t-45.5 172zM352 803q0 -74 64 -101q47 -20 90 -20q104 0 153 119q35 86 35 203q0 63 -12 143q4 2 27 12q-45 72 -111 72q-74 0 -119 -60q-72 -96 -100 -229q-27 -119 -27 -139z" />
<glyph unicode=":" horiz-adv-x="430" d="M-4 117q0 68 90 147q29 23 47 47q27 31 66 31q41 0 84 -42t53 -83q4 -16 4 -47q0 -74 -52 -122t-126 -48q-53 0 -107 31q-59 37 -59 86zM33 748v40q-2 59 33 89q70 57 149 57q70 0 117 -42t47 -110q0 -41 -29 -82q-37 -47 -45 -55q-27 -25 -63 -24q-117 0 -163 27.5 t-46 99.5z" />
<glyph unicode=";" horiz-adv-x="550" d="M-18 -154q0 45 76.5 79t76.5 85q0 20 -20 25q-61 8 -78 67q-10 39 -10 68q0 43 32 72q2 2 33 63q41 74 103 74q10 0 22 -6q53 -23 98 -74q49 -57 50 -109q0 -23 -24 -58.5t-26 -55.5q-4 -39 -6 -76q-6 -51 -22 -70q-66 -76 -90 -96q-57 -49 -119 -49q-96 0 -96 61z M100 752q0 139 236 190q16 4 31 4q61 0 102 -46t41 -107q0 -92 -59.5 -165t-151.5 -73q-74 0 -136.5 61.5t-62.5 135.5z" />
<glyph unicode="&#x3c;" horiz-adv-x="749" d="M0 631q0 6 2 10q14 18 14 72q0 18 52 43l213 106q119 63 202 127q12 20 43 45q80 23 99 23q41 0 61 -39q2 -4 21 -21q12 -12 12 -24t-17.5 -47t-29.5 -39q-12 -10 -37 -10q-4 0 -14.5 2t-14.5 2q-8 0 -7 -10.5t-7 -12.5q-25 -2 -84 -20q-33 -14 -111 -66 q-68 -45 -110 -59q-18 -16 -19 -29q0 -31 256 -246l74 -67q12 -12 12 -25q0 -29 -35.5 -57.5t-64.5 -28.5q-63 0 -207 105q-125 90 -184 159q-12 12 -41 22.5t-39 20.5v29q0 10 -19.5 17.5t-19.5 17.5z" />
<glyph unicode="=" horiz-adv-x="612" d="M2 541q0 31 29.5 50t60.5 19q27 0 64 -12q63 -18 163 -37q143 -25 164 -29q66 -14 66 -77q0 -33 -35 -41q-12 -4 -61 -4q-199 0 -371 75q-25 10 -66 33q-14 11 -14 23zM84 866q0 20 21.5 37t44.5 17q86 0 315 -54q4 0 14 -14t25 -12q0 -25 -18.5 -52.5t-40 -33.5 t-52.5 -6q-51 0 -127 18q-61 16 -123 35q-59 12 -59 65z" />
<glyph unicode="&#x3e;" horiz-adv-x="792" d="M0 338q0 31 14 47q27 33 97 68q86 45 108 61l160 102q100 63 137 125q4 8 4 17q0 23 -53 59l-74 47q-29 25 -75 47.5l-87 44.5q-25 14 -65 45q-16 12 -17 29q0 29 25 62q31 16 55 16q51 0 125 -51q90 -61 123 -72l8 -31q4 -6 15 -6h10q6 2 10 2q8 0 10 -2q18 -16 63 -48 l136 -97q35 -29 35 -58q0 -14 -12 -26q-27 -23 -88 -57q-72 -41 -95 -56l-207 -155l-120 -82l-80 -64q-53 -39 -94 -39q-68 0 -68 72z" />
<glyph unicode="?" horiz-adv-x="839" d="M0 700q0 98 49 248q45 139 103 234q80 129 223 129q49 0 104 -21l180 -47q109 -33 144 -101.5t35 -140.5q0 -156 -164 -317l-70 -63q-23 -18 -26 -53l-9 -64q-2 -6 -6 -21q-27 -80 -67 -80q-14 0 -46 8.5t-38 16.5q-31 47 -31 123q0 100 61 207q6 12 19 30q43 18 108 50 q84 41 84 141q0 68 -63 108q-55 33 -127 33q-76 0 -127 -30q-86 -53 -115 -179l-31 -217q-10 -55 -22 -83.5t-53 -28.5q-39 0 -72 20q-39 25 -41 62q-2 16 -2 36zM406 119q0 41 38 59q49 20 80 21q33 0 58.5 -23.5t25.5 -56.5q0 -8 -8 -20.5t-8 -26.5v-13q2 -10 2 -14 q0 -20 -32 -32.5t-56 -12.5q-43 0 -71.5 38t-28.5 81z" />
<glyph unicode="@" horiz-adv-x="1134" d="M-2 643q0 260 123 449q141 219 389 219q137 0 352 -82q53 -23 94 -80q2 -2 62 -109q80 -139 80 -243q0 -199 -258 -273q-12 -2 -25 -2q-14 0 -42 5t-42 5q-37 0 -69 -65q-39 -76 -78 -92q-59 -25 -115 -25q-217 0 -217 250q0 106 49 209q29 61 97.5 99t140.5 38 q74 0 112 -39q18 -18 48 -33.5t42 -27.5q20 -18 29 -107q6 -68 64 -67q82 0 81 147q0 53 -10 80q-25 68 -51 105q-8 10 -27 30q-29 37 -34 43q-18 18 -43 31q-129 61 -230 61q-43 0 -86 -8q-129 -27 -201 -248q-51 -156 -51 -295q0 -207 111 -348q43 -53 104 -94 q74 -49 133 -49q29 0 64 27l57 43q14 6 41 27.5t74 90.5q45 63 80 91q4 -2 12 -12.5t10 -10.5q4 0 18.5 3t20.5 3q12 0 37 -3t37 -3q-37 -221 -330 -352q-74 -33 -153 -33q-166 0 -258 131q-131 31 -195 211q-47 133 -47 303zM436 604q0 -98 43 -98q14 0 39 31q66 82 66 163 q0 31 -16.5 67t-41.5 36q-20 0 -41 -43l-28 -64q-21 -41 -21 -92z" />
<glyph unicode="A" horiz-adv-x="696" d="M0 287v24q0 82 43 199l78 192l92 289q55 172 115 281q23 39 82 39q61 0 129 -35l61 -574q37 -352 37 -575q0 -127 -92 -127q-39 0 -51.5 16.5t-12.5 55.5q0 12 2 63q2 41 0 64l-6 129q-4 57 -31 245q-6 51 -55 52q-10 0 -29.5 -2t-29.5 -2t-26.5 6t-26.5 6q-37 0 -54 -37 q-6 -12 -22 -80q-33 -125 -72 -231q-14 -39 -57 -39q-68 0 -74 41zM299 797q0 -47 65.5 -47t65.5 73q0 18 -2 60v59q-2 0 -14 23q-8 12 -23 12q-29 0 -47 -41q-10 -33 -22 -64q-23 -46 -23 -75z" />
<glyph unicode="B" horiz-adv-x="909" d="M55 66q0 61 56 71q18 2 57 8q20 23 27 52v178q0 203 20 360q16 131 16 228q0 76 -6 167q-12 20 -33.5 23.5t-44.5 5.5q-39 5 -49 15q-23 17 -22 65q0 72 123 72q182 0 327 -43q197 -55 265 -178q29 -53 30 -111v-6q2 -55 -51 -127q-16 -23 -92 -109v-59q20 -29 80 -76 q53 -43 76 -86q37 -71 36 -178q0 -134 -122 -217q-102 -66 -252 -80q-43 -4 -164 -27q-96 -18 -158 -18q-31 0 -61 4q-58 9 -58 66zM358 260q0 -31 15 -70q14 0 43 -2h41q172 0 215 97q16 41 16 82q0 86 -74 151q-68 57 -159 74q-18 2 -31 2q-61 0 -62 -66q0 -12 3.5 -41.5 t3.5 -44.5q0 -31 -5.5 -91t-5.5 -91zM381 862q0 -100 78 -100q68 0 120 62.5t52 131.5q0 74 -52.5 123t-123.5 49q-70 0 -70 -67q0 -10 2 -33.5t2 -36.5q0 -23 -4 -66t-4 -63z" />
<glyph unicode="C" horiz-adv-x="745" d="M0 467q0 215 95 409.5t265 335.5q115 98 226 99q96 0 110 -33q2 -2 2 -14q0 -33 -32 -54l-162 -82q-92 -47 -137 -120q-190 -307 -191 -502q0 -147 66 -268q53 -96 184 -97q98 0 192 39q27 10 44 10q33 0 59.5 -17t26.5 -35.5t-13 -41.5q-37 -70 -153 -78 q-27 -2 -107 -10q-66 -8 -106 -8q-90 0 -152 35q-217 125 -217 432z" />
<glyph unicode="D" horiz-adv-x="708" d="M33 57q0 27 26 52q41 39 50 96v117q0 49 -2.5 146t-2.5 148q0 70 5.5 211.5t5.5 210.5q0 96 -2 105.5t-12.5 28t-10.5 30.5q0 70 53 90q47 18 62 19q18 0 112 -66q76 -51 109 -80q104 -84 154 -180q82 -168 82 -350q0 -131 -37 -252q-47 -145 -133 -221 q-106 -94 -187 -121q-90 -18 -180 -39q-10 -2 -19 -2q-73 0 -73 57zM250 539q0 -344 24 -344q82 0 162 137q70 121 74 211q2 37 2 78q0 119 -61 278q-76 199 -181 199q-14 0 -12 -37q2 -43 0 -51.5t-4 -169.5q-4 -180 -4 -301z" />
<glyph unicode="E" horiz-adv-x="792" d="M68 598q0 96 4 104q12 4 37 15q45 20 45 162q0 25 -7 63q-6 49 -8 62q-5 50 -4 84q0 26 2 43q14 104 15 116q2 25 43 44.5t67 19.5q57 0 68 -21q6 -8 6 -71q0 -43 88 -43q33 0 98.5 3t95.5 3q176 0 177 -37q0 -74 -13 -86q-28 -32 -134 -32q-18 0 -38 1q-127 6 -157 6 q-2 0 -91 -16q-12 -12 -40 -23q-8 -2 -9 -47q0 -25 5.5 -69.5t5.5 -67.5q0 -8 -3.5 -25.5t-3.5 -25.5q0 -37 37 -37t109 15.5t108 15.5q98 0 105 -47q1 -6 1 -12q0 -73 -128 -103l-203 -41q-25 -25 -24 -51q0 -43 10 -135q12 -102 24 -136q33 -33 41 -32q51 0 145.5 36.5 t143.5 36.5q25 0 51.5 -25.5t26.5 -54.5q0 -55 -135 -94l-189 -41q-164 -43 -319 -43q-35 0 -35 72q0 35 13.5 55.5t39 23.5t31.5 13q11 19 11 78q0 10 -1 20q-4 106 -6 138q-8 94 -27 133q-12 27 -55 26q-24 0 -24 27z" />
<glyph unicode="F" horiz-adv-x="878" d="M0 1141q0 31 18.5 57.5t47.5 26.5q14 0 43.5 -2t44.5 -2q41 0 105.5 5t98.5 5q45 0 91 -6q6 -1 22.5 -1t44.5 1q61 4 66 4q41 0 106.5 6t106.5 6q109 0 108 -53q0 -2 -2 -5t-2 -5q6 -61 -78 -86q-55 -16 -188 -24.5t-174 -20.5q-53 -14 -53 -111q0 -19 2 -54.5t2 -52 t16 -32t31 -15.5q4 0 172 33q51 8 88 8q115 0 114 -69q0 -14 -6 -43q-16 -23 -22 -29q-12 -10 -31 -12q-53 0 -156 -13q-72 -18 -141 -18q-23 0 -42 -19.5t-21 -39.5q-4 -47 -4 -72q0 -43 2 -128t2 -126q0 -123 -11 -195q-10 -59 -88 -59q-86 0 -86 96q0 31 4.5 98.5 t4.5 98.5q0 6 -3 18v17q0 23 9 73q5 34 4 58v14q-4 84 -39 113q-20 18 -60.5 21t-46.5 20q-4 10 -4 41q0 57 35 80q4 2 62 16q39 8 40 45q2 14 13 70q8 43 8 69q0 90 -66 111q-61 4 -124.5 11.5t-63.5 70.5z" />
<glyph unicode="G" horiz-adv-x="829" d="M0 623q0 258 141 483q70 106 144 149q100 55 202 56q139 0 203 -113l68 -113q37 -70 37 -120q0 -12 -2 -23q-33 -20 -60 -20q-51 0 -100 79l-68 123q-25 41 -67 41q-90 0 -162 -104q-156 -227 -156 -449q0 -98 31 -190q18 -49 53 -88q43 -43 90 -43q33 0 69 30.5t36 61.5 q0 8 -6 23q-74 236 -74 397q0 18 24.5 32.5t45.5 14.5q29 0 86 -27q29 -14 32 -39q0 -12 11 -163q8 -102 26 -154q12 -31 62 -57q41 -25 41 -39.5t-16.5 -43t-20.5 -44.5q-8 -43 -8 -68q0 -43 19 -127t19 -129q0 -55 -19 -74.5t-73 -19.5q-76 0 -90 51q-6 14 -6 111 q0 139 -115 139q-14 0 -43.5 -2t-44.5 -2q-25 0 -45 8q-201 80 -241 252q-23 97 -23 201z" />
<glyph unicode="H" horiz-adv-x="978" d="M2 737q0 39 33 62.5t71 23.5q20 0 53.5 -13t53.5 -13q47 0 61 30q8 18 9 72q0 16 4 52t4 53v61q-2 39 -2 59q0 158 86 158q90 0 90 -125q0 -35 -6 -103.5t-6 -103.5q0 -139 71 -139q94 0 94 160q0 27 -3 73t-3 58q0 209 111 209q94 0 94 -107q0 -43 -12 -127t-12 -127 q0 -66 38 -98q6 -6 72 -39q39 -20 39 -53q0 -25 -27 -30l-49 -9q-51 -6 -67 -41q-10 -23 -11 -82q0 -74 16.5 -225.5t16.5 -227.5q0 -80 -6 -100q-14 -45 -78 -45q-104 0 -104 115q0 37 9 111.5t9 111.5q0 209 -45 334q-8 23 -45 22q-84 0 -106 -80q-10 -37 -11 -151 q0 -45 4.5 -137.5t4.5 -137.5q0 -35 -11.5 -48t-48.5 -13q-66 0 -90 27.5t-24 93.5q0 51 6 151.5t6 151.5q0 63 -39 106q-74 -20 -127 -20q-49 0 -86 25.5t-37 74.5z" />
<glyph unicode="I" horiz-adv-x="829" d="M0 172q0 76 98 90l142 4q49 6 92 27q10 74 10 149q0 66 -7 227.5t-7 225.5v27q2 18 2 26q0 39 -39 39q-29 0 -112 -13t-111 -13q-55 0 -56 118q0 6 2 13q20 25 76 39l86 20q4 0 78 8q43 6 59.5 45t96.5 49q8 1 15 1q29 0 46 -13q10 -8 43 -47q16 -23 55 -23 q18 0 61.5 8.5t61.5 8.5q43 -2 62 -6q33 -8 51 -35q2 -4 2 -68q0 -31 -53 -45q-39 -12 -78 -12q-27 0 -76 5t-74 5q-14 0 -29.5 -15.5t-16.5 -28.5t-1 -52q0 -76 15.5 -277.5t15.5 -279.5v-23v-24q0 -41 49 -66q6 -1 13 0q23 0 63 4q61 4 88 4q111 0 102 -75q2 -61 -94 -74 l-158 -4q-66 -6 -72.5 -43t-82.5 -37q-49 0 -66 6q-29 10 -28 45q0 16 -17 19q16 -2 -33 -2q-76 0 -113.5 -5.5t-64.5 -5.5q-49 0 -65 8q-31 15 -31 66z" />
<glyph unicode="J" horiz-adv-x="407" d="M-94 -186q0 51 78 51q16 0 61 -15q2 -1 5 0q20 0 69 37q94 74 125 289q8 55 8 117q0 76 -18.5 226.5t-18.5 225.5q0 92 14 109q20 27 74 27q61 0 66 -47q41 -365 41 -543q0 -170 -11 -207q-6 -16 -16 -53q-25 -82 -39 -115q-25 -63 -61 -104q-94 -111 -224 -111 q-51 0 -96 25q-57 31 -57 88zM82 1145q0 53 27.5 98t76.5 57q41 10 88 11q45 0 93 -11q2 -10 22 -81q14 -51 14 -86q0 -63 -44 -105.5t-107 -42.5q-33 0 -80 29q-90 53 -90 131z" />
<glyph unicode="K" horiz-adv-x="837" d="M94 451q8 16 53 71q33 41 33 88q0 78 -6 199t-6 182q0 14 -3 43t-3 46.5t-2 58.5t-2 61q0 25 4 60q6 51 76 51q23 0 36 -6q2 -2 7 -37q10 -104 10 -150v-49v-49q0 -158 28 -264q37 12 56 39q20 53 80 151q37 37 94 105q12 33 51 77q45 25 94 25q53 0 54 -47 q0 -33 -58 -98q-25 -33 -76 -93q-55 -51 -118 -159q-12 -25 -13 -84q0 -82 109 -150q72 -45 149 -119q100 -96 101 -149q0 -23 -28 -37t-52 -14q-29 0 -45 18q-106 125 -158 172q-92 86 -190 127q-16 0 -31.5 -14t-15.5 -29q0 -16 10 -131q10 -92 24 -276v-4 q2 -29 -24.5 -47.5t-55.5 -18.5q-68 0 -67 139v56q2 37 2 53q0 76 -16 112q-12 25 -70 27q-29 23 -31 64z" />
<glyph unicode="L" horiz-adv-x="727" d="M0 113q0 43 48 59t52 47q8 39 9 62q0 229 -29 440l-29 192q-18 117 -18 197q0 88 16 154q12 47 76 47q66 0 76 -47q18 -86 26 -215q6 -109 15 -218q2 -31 18 -116q14 -74 14 -115q0 -8 -2 -148.5t-2 -148.5q0 -55 41 -66.5t76 -11.5q43 0 125 18.5t125 18.5q98 0 98 -61 q0 -14 -10 -27q-51 -53 -180 -61q-197 -14 -205 -15q-39 -39 -39 -45q0 -35 17.5 -68.5t17.5 -68.5q0 -59 -37 -84q-18 -12 -55 -12q-33 0 -62 14q-37 16 -37 82v68q-6 -4 -28 10l-70 53q-47 37 -47 66z" />
<glyph unicode="M" horiz-adv-x="1105" d="M0 1071q0 61 59 62q29 0 115 -21q57 -14 94 -14q12 0 23 2q6 -6 20 -6q0 -139 17 -207q29 -113 116 -158q51 0 56.5 51t44.5 148.5t43 150.5q2 4 33 31q18 14 18 45q0 18 -13.5 51t-13.5 49v5q25 49 84 49q31 0 43 -17q70 -119 140 -340l102 -358q70 -242 86 -516v-6 q2 -27 -33 -49.5t-65 -22.5q-35 0 -41 33q-16 66 -27 170l-20 172q-25 197 -86 336l-25 102q-14 61 -65 80q-14 0 -24.5 -15.5t-21.5 -27.5q-4 -29 -32 -129q-25 -80 -25 -131q0 -37 4 -47q8 -20 53 -60q39 -37 39 -65q0 -55 -88 -56q-12 0 -30 11q-39 8 -111 41 q-25 18 -33 50t-18 66.5t-39 49.5q-10 4 -19 4q-43 0 -43 -78q0 -45 7.5 -136t7.5 -137q0 -80 -13 -133q-10 -41 -77 -41q-55 0 -56 37q0 43 2 131v129q0 260 -26 469q-4 25 -56 80q-16 25 -49 70q-57 69 -57 96z" />
<glyph unicode="N" horiz-adv-x="811" d="M0 1159q0 25 14 43q18 2 47 12l62 50q59 47 94 47q57 0 57 -119q0 -59 -26 -139q33 -51 133 -232q131 -231 168 -231q27 0 26 31q0 162 -34 417l-19 140q-8 59 -8 61q0 18 47 35q39 10 66 10q33 0 39 -24q45 -160 59 -484q4 -164 20 -489q-27 -27 -26 -86q0 -18 4 -55 t4 -56q0 -90 -98 -90q-31 0 -51 55q-12 43 -13 84v33q2 23 2 35q0 63 -49 147q-12 20 -88 131l-92 129q-45 66 -55 66q-12 0 -27.5 -11.5t-15.5 -23.5q0 -84 9 -251t9 -244q0 -55 -92 -56q-47 0 -51 31q-23 131 -23 321q0 53 2 161t2 161q0 18 2 57t2 60q0 76 -22 125 q-2 4 -47 71q-31 47 -31 78z" />
<glyph unicode="O" horiz-adv-x="876" d="M0 467q0 303 121 494q25 41 91.5 101t90.5 97q-2 4 -10 16.5t-8 16.5q0 6 3 23.5t3 25.5q0 35 4 43q14 27 55 27q25 0 43 -11q10 -10 33 -26q203 -156 215 -166q117 -104 160 -215q12 -33 12 -39q0 -41 -12 -156q-47 -401 -269 -569q-72 -55 -174 -55q-115 0 -206 51 q-102 57 -129 160q-23 82 -23 182zM178 518q0 -104 25 -192q23 -74 92 -99q49 -18 76 -18q35 0 63 27q94 84 150 223q51 129 51 264q0 113 -53 182l-131 139q-129 -18 -209 -213q-64 -157 -64 -313z" />
<glyph unicode="P" horiz-adv-x="684" d="M0 680q0 45 102 45q18 0 23 25q8 35 8 112q0 72 -14 115q-6 12 -35 25.5t-40 33t-11 31.5q0 27 55.5 46.5t61.5 49.5q2 12 8 39q23 109 82 109q31 0 58.5 -17.5t27.5 -46.5q0 -12 -7.5 -35.5t-7.5 -37.5q0 -6 2 -11l23 -24q131 -29 219 -103q107 -88 107 -209 q0 -127 -100.5 -213t-229.5 -86h-23q-14 2 -20 2q-29 0 -33 -24q-4 -16 -10 -119q-4 -80 -19 -237q-2 -37 -12 -105q-8 -33 -33 -41q-10 -4 -45 -4q-84 0 -84 61q0 84 25.5 251t25.5 243q0 25 -32 43q-45 23 -52 31q-20 22 -20 51zM274 756q0 -78 74 -78q57 0 97 47 t40 104.5t-46 117t-101 59.5q-47 0 -55 -60v-96q0 -14 -4.5 -46t-4.5 -48z" />
<glyph unicode="Q" horiz-adv-x="966" d="M0 512q0 145 68 260q76 123 206 166q39 4 115 16q18 2 33.5 40t56.5 38q16 0 33 -12l180 -129q109 -80 166 -141q92 -102 92 -306q0 -113 -51 -204q-66 -113 -170 -160q-20 -6 -61 -21q-33 -12 -33 -41q0 -33 16.5 -98t16.5 -98q0 -100 -93 -101q-78 0 -88 43 q-10 74 -32 222q-4 23 -25 41q-111 27 -248 92q-16 6 -48 24.5t-81 87.5q-12 18 -41 115q-4 12 -8 98q-4 72 -4 68zM180 537q0 -96 29 -196.5t188 -150.5q6 23 6 46q0 35 -16 101t-16 101q0 18 2 31q12 72 96 72q41 0 59 -29q33 -49 44.5 -161.5t37.5 -160.5q76 12 125 107 q43 82 43 166t-53 164q-37 55 -172 151q-53 39 -55 39q-8 0 -21.5 -6t-22 -6t-29 3t-30.5 3q-45 0 -88 -20q-127 -66 -127 -254z" />
<glyph unicode="R" horiz-adv-x="1034" d="M-2 1206q0 29 49 51q35 16 126 35t130 19h100q213 0 334 -31q100 -25 164 -113t64 -194q0 -127 -62 -195l-160 -131l162 -293q131 -244 131 -274q0 -41 -55 -64q-41 -16 -88 -16q-12 4 -23 20l-41 95l-88 192q-45 102 -71 148q-45 82 -103 127q-18 16 -49 16 q-94 0 -102 -80q-4 -47 -4 -104q0 -88 20 -162q20 -66 21 -72q0 -39 -19 -67q-37 -29 -82 -29q-53 0 -67 39q-27 66 -27 145q0 31 4 92.5t4 92t-2 48t-23.5 38t-41.5 20.5q-27 0 -45.5 19.5t-18.5 44.5q0 29 47 50t51 58q18 182 19 217q0 129 -59 191q-20 20 -60 20 q-14 0 -39.5 -2t-40.5 -2q-55 0 -55 51zM389 985q0 -78 64 -151q49 66 114 65q49 0 92 -38t56 -38q27 0 55 37q23 31 29 62q4 16 4 45q0 106 -88 153q-98 53 -254 54q-66 0 -66 -39v-15q2 -10 2 -14q0 -20 -4 -60.5t-4 -60.5z" />
<glyph unicode="S" horiz-adv-x="739" d="M-106 223.5q0 26.5 19 47t46 20.5q29 0 135.5 -80t175.5 -80q133 0 213 152q25 43 31 71.5t6 71.5q0 102 -76 147q-37 20 -163 48q-117 25 -166 65q-78 61 -78 148q0 29 16 59q63 115 158 184q106 78 227 78q72 0 144 -31q92 -41 92 -102q0 -70 -68 -70q-27 0 -59.5 30 t-47 35t-42.5 5q-59 0 -105 -35q-127 -96 -127 -158q0 -39 47 -63q41 -20 144.5 -49t148.5 -51q76 -39 107 -103q27 -53 26 -121q0 -72 -55 -221q-37 -100 -144.5 -163.5t-219.5 -63.5q-53 0 -105 16q-188 61 -260 160q-20 27 -20 53.5z" />
<glyph unicode="T" horiz-adv-x="598" d="M0 1006q0 47 41 65l59 12q41 8 47 31q12 63 21 168q18 35 36.5 42t65.5 7q68 0 68 -84q0 -31 -12.5 -39t-12.5 -39q0 -23 4 -41q16 -20 20.5 -22t29.5 -2q23 0 68.5 7t68.5 7q90 0 90 -65q0 -27 -25.5 -43.5t-54.5 -16.5t-90 -7t-92 -7q-18 0 -23 -21q-2 -10 -4 -116 q-2 -141 -10 -363q-2 -35 -2 -71q0 -31 2 -92.5t2 -92.5q0 -117 -23 -184q-14 -39 -63 -39q-70 0 -78 47q-14 74 -14 203q0 98 14 321q18 256 21 322v12q2 29 -15 31l-86 12q-53 15 -53 58z" />
<glyph unicode="U" horiz-adv-x="931" d="M0 592q0 51 4 115q12 215 21 280q25 172 84 262q18 29 65 29q55 0 96 -33l-53 -317q-27 -186 -27 -324q0 -147 41 -289q57 -201 168 -200q39 0 81 29.5t59.5 65.5t44.5 114q98 285 98 809v167q0 14 27 15q23 0 67.5 -11.5t61.5 -21.5q23 -16 26 -104q2 -74 2 -131 q0 -596 -198 -963q-45 -84 -265 -84q-221 0 -292 121q-111 184 -111 471z" />
<glyph unicode="V" horiz-adv-x="612" d="M0 49q0 55 61 168q68 121 68 191q0 16 -33 342q-6 57 -41 229q-29 143 -28 231q0 51 5 76t62 25q39 0 53 -27q31 -59 46 -174l16 -182q12 -74 57 -191q98 131 156 285l43 113q27 63 55 104q23 33 72 33q57 0 86 -37l-211 -459q-123 -272 -162 -475q-2 -14 -2 -29 q0 -33 16.5 -91t16.5 -89q0 -59 -53 -59q-8 0 -27 2h-27q-27 0 -75 -17.5t-70 -17.5q-18 0 -51 20.5t-33 28.5z" />
<glyph unicode="W" horiz-adv-x="1026" d="M0 1196q0 68 2 78q10 37 59 37q45 0 54 -31q29 -96 41 -299q2 -70 12 -211q2 -14 16 -88q2 -23 6 -43q6 -27 25 -27q8 0 14 9q86 86 160 348q6 20 6 43q0 33 -21.5 95t-21.5 97q0 72 68 72q33 0 50 -39t38 -39q12 0 35.5 2t34.5 2q41 0 40 -39q0 -23 -27.5 -78t-27.5 -86 q0 -197 158 -454q68 139 100 307l35 199q4 29 16 82q20 63 99 63q55 0 55 -27q0 -4 -4 -8q-12 -111 -94 -416q-70 -260 -70 -419q0 -29 45 -69t45 -62q0 -45 -61 -46h-33q-20 2 -33 3q-20 0 -28 -3q-23 -4 -31 -45q-12 -55 -21 -69q-23 -35 -75 -35q-78 0 -78 61 q0 29 26.5 83.5t26.5 84.5q0 27 -26.5 72t-31.5 64.5t-10.5 58.5t-27.5 121q-8 14 -13 37q-14 70 -20 84q-14 37 -55 65q-37 -43 -60 -98l-43 -107q0 -6 2 -15t2 -13l-17 -35q-17 -35 -32.5 -72t-38.5 -106q-2 -10 -2 -78q0 -88 -67 -88q-47 0 -66 41q-10 23 -16 84 q-8 74 -33 112.5t-29 102.5l-4 106q-53 481 -53 631z" />
<glyph unicode="X" horiz-adv-x="1015" d="M0 1227q0 37 27.5 61.5t62.5 24.5q53 0 103 -62q6 -8 67 -102q12 -20 41 -57q39 -45 76 -93q43 -53 90 -73q27 45 55 133q33 96 47 129q41 80 93 80q37 0 86 -35q-6 0 -7.5 -13.5t-5.5 -26.5l-14 -44q-76 -211 -131 -428q51 -74 280 -363q47 -57 136 -178q6 -10 6 -24 q0 -33 -34 -66t-67 -33q-72 0 -186 160l-84 121q-70 96 -88 96q-8 0 -39 -31q-43 -168 -98 -335q-8 -25 -39 -39q-59 -29 -80 -29q-25 0 -43 22.5t-18 49.5q0 12 6 24q160 373 159 529q0 57 -90 161q-27 31 -41 54q-35 53 -143 180q-127 148 -127 207z" />
<glyph unicode="Y" horiz-adv-x="784" d="M0 1200q0 37 28.5 60.5t65.5 23.5q49 0 129 -72l113 -108q39 -37 84 -70q47 47 67 131q18 74 33 101q31 45 88 45q63 0 67.5 -19.5t4.5 -44.5q0 -70 -41 -170q-61 -154 -66 -168q20 -35 113 -100q76 -53 74 -96l-2 -8q0 -20 -25 -39q-66 -49 -90 -50q-16 0 -68 35 q-23 18 -57 29q-31 -70 -70.5 -251t-39.5 -253q0 -12 6 -34.5t6 -35.5q0 -6 -12 -36q-10 -23 -19.5 -35t-30.5 -17q-86 -18 -96 -18q-27 0 -31 25.5t-4 70.5q0 94 37 250q43 182 51 248q4 33 33 100q29 61 29 99q0 70 -98 151l-181 135q-98 74 -98 121z" />
<glyph unicode="Z" horiz-adv-x="1308" d="M0 207q0 66 63 84q43 14 154 33q63 10 115 10q27 0 53 -2q137 137 358 487l64 101q4 8 4 16q0 18 -41 59q-2 2 -221 11q-63 2 -121 20q-82 25 -82 70q0 51 60 75q18 8 49 9q43 0 114 -29q109 -43 328 -43q53 0 104 92l23 41q41 70 133 70q70 0 103 -25q14 -8 14 -26 q0 -35 -43 -76v-45q20 -20 63 -39q20 -8 21 -17q0 -55 -58 -90q-47 -29 -106 -28q-43 0 -82 14q-98 -92 -195 -238l-157 -262q-23 -33 -64 -100q-4 -8 -4 -17q0 -16 15.5 -27t27.5 -24q147 -4 297 -10q188 -8 287 -41q12 -4 12 -18q0 -61 -94 -84q-33 -10 -76 -11 q-66 0 -196.5 19.5t-196.5 19.5q-98 0 -176 -28q-35 -12 -115 -90q-70 -68 -121 -68q-59 0 -59 63q0 39 35 66q-31 43 -74 43q-25 0 -74 -23.5t-73 -23.5q-27 0 -47.5 26.5t-20.5 55.5z" />
<glyph unicode="[" horiz-adv-x="665" d="M0 98q0 39 23 60q8 6 67 22q47 12 51 35q33 184 33 502q0 86 -5 261t-5 263q0 35 45 52.5t115 17.5q76 0 305 -56q41 -10 41 -61q0 -98 -107 -98q-29 0 -84 16t-84 16q-31 0 -55 -12v-901q16 -4 37 -4q23 0 67.5 8t67.5 8q41 0 83 -26.5t42 -63.5q0 -23 -22.5 -41 t-45.5 -20q-45 -6 -149 -43q-94 -33 -152 -33q-29 0 -72.5 16.5t-64.5 16.5q-8 0 -23.5 -3t-23.5 -3q-84 -1 -84 71z" />
<glyph unicode="\" horiz-adv-x="735" d="M0 1229q0 82 88 82q35 0 67.5 -35t39 -100.5t26.5 -88.5q27 -41 90 -116q2 -2 2 -4q0 -4 -18 -21q61 -49 100 -137l64 -158q16 -35 151 -268q92 -158 121 -285q4 -14 4 -22q0 -76 -98 -76q-47 0 -62 25q-29 47 -104 206l-201 445q-57 104 -164 319q-10 23 -55 88 q-35 53 -45 95q-6 31 -6 51z" />
<glyph unicode="]" horiz-adv-x="851" d="M0 1053q0 25 18 41q39 41 109 57l123 25q41 2 84 6q53 6 59 41q16 88 88 88q121 0 129 -72q8 2 17 2h14q10 -2 14 -2q8 0 19.5 5t19.5 5q18 0 68 -26q43 -23 43 -60q0 -59 -70 -88q-16 -6 -117 -28q0 -82 -6 -245t-6 -245q0 -184 6 -244q16 -188 78 -188q10 0 31 2h29 q49 0 69 -16q29 -25 29 -62q0 -49 -88 -69q-100 -23 -117 -54q-10 -16 -10 -73q0 -98 -96 -99q-43 0 -86 21q-29 12 -29 43q0 10 4 31.5t4 33.5q0 23 -39 23q-35 0 -99.5 -20.5t-98.5 -20.5q-76 0 -76 88q0 61 121 100l180 49q4 61 4 199q0 74 -2 224.5t-2 224.5q0 27 6 81 t6 80q0 115 -96 115q-41 0 -119 -23.5t-119 -23.5q-96 0 -96 74z" />
<glyph unicode="^" horiz-adv-x="495" d="M23 1421q0 25 18 41q43 37 65 60q12 12 105 98q78 -8 101.5 -21.5t64.5 -74.5l41 -62l31 -27q16 -15 16 -32q0 -25 -27.5 -48.5t-52.5 -23.5q-43 0 -63 45l-25 54l-39 40q-31 -12 -88 -57q-43 -35 -86 -35q-61 0 -61 43z" />
<glyph unicode="`" horiz-adv-x="372" d="M0 1516q6 4 6 12q0 4 -2 12t-2 14q0 12 23.5 36t37.5 24q-2 0 13.5 -9.5l120.5 -76.5q121 -78 120 -131q0 -29 -23.5 -48.5t-51.5 -19.5q-25 0 -43 14q-29 27 -107 80q-43 32 -92 93z" />
<glyph unicode="a" horiz-adv-x="747" d="M0 268q0 104 43 172l45 66q29 37 59 49q39 18 60 18q23 0 69 -4t68 -4q135 0 135 117q0 33 -22 141q-6 41 -66 90q-12 10 -24.5 10.5t-24.5 -10.5q-55 -39 -63 -69l-17 -92q-6 -20 -33.5 -35t-52.5 -15q-61 0 -61 54q0 113 80 239q27 41 86 62q82 27 106 26q20 0 41 -8 l70 -33q45 -23 57 -41q74 -121 74 -231q0 -45 -19 -176q-18 -90 -55 -303q-1 -8 -1 -15q0 -37 26 -69l30 -23q16 -12 17 -37q0 -37 -19 -55q-6 -6 -47 -31q-106 -61 -233 -61q-96 0 -187 31q-70 25 -108 96q-33 63 -33 141zM158 281q0 -18 6 -50q20 -98 108 -98 q104 0 131 57q0 8 -7 22.5t-7 25.5q0 25 13.5 73.5t13.5 73.5q0 61 -62 61h-24h-25q-68 0 -107.5 -48.5t-39.5 -116.5z" />
<glyph unicode="b" horiz-adv-x="735" d="M0 862q0 37 33 53l64 21q32 10 40 29q16 35 17 79q0 18 -2 55.5t-2 55.5q0 156 108 156q39 0 78 -19q-37 -137 -37 -213q0 -59 18 -108q14 -37 82 -56q31 -6 84 -26q98 -70 158 -174q59 -111 59 -228q0 -86 -32 -155q-123 -254 -412 -318q-63 -14 -104 -14q-45 0 -46 82 q0 150 33 471q8 82 8 111q0 70 -11 93t-50 23h-23q-14 -2 -22 -2q-20 0 -27 8q-14 23 -14 76zM285 324q0 -59 22 -123q98 16 153.5 86.5t55.5 169.5q0 8 -4 21.5t-4 19.5q0 4 5 19t5 26l-63 157q-45 76 -144 86q-12 -68 -12 -137q0 -18 2 -59v-58q0 -35 -8 -104t-8 -104z " />
<glyph unicode="c" horiz-adv-x="651" d="M8 621q0 209 117 303q59 47 121 47q86 0 270 -107q43 -27 43 -69q0 -70 -84 -70q-27 0 -91.5 37t-113.5 37q-14 0 -24 -2q-35 -6 -47 -39q-4 -8 -13 -62q-16 -86 -16 -143q0 -174 117 -248q25 -16 55 -16q39 0 195 57q16 6 30 6q25 0 47.5 -20.5t22.5 -46.5 q0 -63 -62 -95q-121 -59 -221 -59q-180 0 -272 162q-74 131 -74 328z" />
<glyph unicode="d" horiz-adv-x="634" d="M0 436q0 393 412 535q10 4 11 12t3 12q8 31 8 68q0 20 -3 61t-3 62q0 125 96 125q51 0 62 -39q16 -68 16 -148q0 -41 -5 -119.5t-5 -119.5v-23q2 -14 2 -22q0 -10 -4 -29.5t-5 -31t-1 -48.5q0 -109 17 -328t17 -329q0 -127 -10 -187q-6 -39 -59 -39q-92 0 -92 56 q0 10 4 28.5t4 26.5q0 43 -64 43q-12 0 -37.5 -3t-37.5 -3q-61 0 -160 57q-166 96 -166 383zM158 440q0 -78 30 -157q23 -55 86.5 -101.5t120.5 -46.5q31 0 56 12q2 29 2 62q0 82 -13.5 247t-13.5 246q0 10 2 33t2 35q0 45 -39 45t-104 -72l-27 -26q-43 -45 -63 -103 q-39 -111 -39 -174z" />
<glyph unicode="e" horiz-adv-x="811" d="M88 442q0 41 21 185q23 162 90 276q88 152 223 152q51 0 92 -15q31 -8 76 -32q78 -84 108 -185v-15q0 -40 9 -89q4 -6 35.5 -18.5t35.5 -23.5t4 -24q0 -61 -49 -80q-33 -10 -143 -10q-47 0 -137.5 11.5t-137.5 11.5q-23 0 -43 -2q-25 -31 -24 -82q0 4 16 -131 q12 -100 66 -135q109 -74 149 -74q51 0 84 32.5t33 84.5q0 10 -2 28.5t-2 28.5q0 25 57 49q10 4 29 4q82 0 82 -115q0 -135 -90 -194q-112 -76 -183 -76h-10q-68 4 -194 68q-98 49 -150 161q-45 94 -45 209zM326 762q0 -23 20 -23q29 0 85 -10t85 -10q6 0 21.5 9t15.5 13 q-18 100 -33 123q-18 16 -39 33q-8 8 -61 8q-29 0 -61.5 -56t-32.5 -87z" />
<glyph unicode="f" horiz-adv-x="870" d="M0 543q0 31 6 45q10 8 68 24q43 14 45 37t2 39q0 43 -12.5 128t-12.5 128q0 158 135 295q72 72 148 72q121 0 172 -60q113 -127 113 -254q0 -98 -62 -98q-35 0 -59.5 22.5t-36.5 75.5q-8 43 -19 86q-12 20 -36 56q-8 14 -35 14q-14 0 -51 -20q-109 -63 -109 -234 q0 -31 13.5 -86t13.5 -84q0 -49 18 -53t53 -4q72 0 209 38t211 38q94 0 94 -58q0 -20 -8 -30.5t-24 -22.5q-61 -45 -252 -78q-61 -14 -181 -39q-49 -8 -79 -16q-14 -4 -15 -21q0 -29 4 -87t4 -87v-61q-2 -41 -2 -62q0 -23 2 -64.5t2 -64.5q0 -57 -98 -57q-49 0 -63 43 q-18 51 -19 133q0 29 3 86t3 86q0 70 -14 121q-12 -4 -29 -4q-102 0 -102 78z" />
<glyph unicode="g" horiz-adv-x="647" d="M0 819q0 41 61 96l97 80q0 4 2 13.5t4 13.5q18 23 64 27t59 12q37 20 57 90q25 84 41 106q25 33 104 33q41 0 41 -45q0 -14 -40.5 -88t-40.5 -121q0 -39 32 -78q41 -51 49 -67q12 -33 13 -60q0 -20 -33 -97t-164 -124q-31 -12 -31 -37q0 -35 47 -34q8 0 24.5 3t27.5 3h10 q20 -10 49 -35q129 -104 129 -264q0 -117 -90 -193t-209 -76q-53 0 -108.5 31t-83.5 78q-18 31 -39 78q-8 18 -9 55q0 14 -5 37t-5 35q0 39 24.5 95t110.5 118q-39 100 -88 145q-12 8 -34 25q-6 6 -27 47q-39 78 -39 98zM168 805q0 -37 41 -70t80 -33q41 0 71 48 q27 41 27 86q0 10 -2 18t-18.5 26.5t-26.5 18.5q-6 0 -16.5 -7t-16.5 -7q-139 0 -139 -80zM225 266q0 -57 23 -104q27 -59 78 -60q45 0 86 50q33 41 32.5 96t-28.5 108q-37 61 -88 62q-35 0 -65 -33t-34 -70q-4 -24 -4 -49z" />
<glyph unicode="h" horiz-adv-x="663" d="M57 674q-1 146 -1 258q0 225 5 317q2 63 105 64q70 0 86 -82q4 -20 4 -135q0 -82 16 -105q20 -33 101 -37q98 -4 123 -14q59 -27 75 -70q6 -20 21 -61q47 -145 57 -231q4 -37 4 -185q0 -23 3 -65.5t3 -65.5q0 -8 -8 -127q0 -16 -3 -45t-30.5 -54.5t-54.5 -25.5 q-88 0 -102 35q-6 12 -6 39t10 74t12 67q4 37 4 80q0 80 -39 307q-10 70 -16 90q-12 51 -34.5 83t-67.5 32q-61 0 -70 -41q-12 -68 -12 -213q0 -76 8 -227.5t8 -226.5q0 -59 -4 -115q-49 -41 -117 -41q-53 0 -63.5 30.5t-10.5 96.5q0 33 6.5 100.5t6.5 100.5 q0 68 -9.5 197.5t-9.5 195.5z" />
<glyph unicode="i" horiz-adv-x="479" d="M4 1184q0 82 39 108q31 18 117 19q82 0 146.5 -59.5t64.5 -139.5q0 -10 -6.5 -26.5t-6.5 -26.5q0 -4 2 -8q4 -16 5 -33q0 -51 -44.5 -90t-95.5 -39q-55 0 -94 39q-127 125 -127 256zM166 483q0 41 2 90l6 117q14 68 72 84q8 2 16 7t21 5q74 0 73 -59q0 -20 -18 -59 q-6 -47 -6 -101q0 -76 13 -223t13 -223q0 -45 -2 -55q-8 -66 -71 -66q-41 0 -68 17.5t-29 66.5q-2 27 -14 199q-8 120 -8 200z" />
<glyph unicode="j" horiz-adv-x="655" d="M0 528q0 49 47 72q31 14 62 14q18 0 24 -12l7 -39l24 -123q37 -162 41 -176q33 -98 84 -98h4q106 8 147 78q29 53 29 166q0 37 -11.5 112.5t-11.5 112.5q0 10 2.5 29.5t2.5 29.5q0 23 -16.5 65t-16.5 62q0 41 41 66q33 20 73 20q57 0 68 -49q6 -37 16 -106 q35 -207 35 -301q0 -131 -43 -234q-37 -92 -125 -154.5t-186 -62.5q-82 0 -145 49q-96 74 -132 219q-20 92 -20 260zM391 1143q0 168 125 168q96 0 96 -113q0 -70 -26 -119q-35 -61 -97 -61q-98 0 -98 125z" />
<glyph unicode="k" horiz-adv-x="778" d="M0 424q0 31 57 63q66 37 76 54q18 35 19 86q0 39 -12.5 112.5t-12.5 110.5q0 330 18 403q16 57 93 58q51 0 63 -47q4 -14 4 -86q0 -61 -8 -180t-8 -179q0 -63 6 -117q12 -20 14 -20q-2 0 120 96t163 96q31 0 58.5 -17t27.5 -46q0 -45 -68.5 -83t-68.5 -66q0 -27 84 -179 l82 -137q70 -117 69 -125q0 -6 -4 -20.5t-4 -22.5q-6 -16 -34.5 -18t-37.5 -15q-16 4 -39 15q-12 12 -40.5 52t-98.5 179q-59 119 -112 176q-31 -23 -78 -78q-33 -66 -33 -247q0 -174 -66 -238q-2 -4 -10 -4q-57 0 -78.5 41t-21.5 104q0 37 10 111t10 111l-61 -11 q-12 -2 -22 -2q-56 0 -56 70z" />
<glyph unicode="l" horiz-adv-x="354" d="M53 199q0 111 17.5 332t17.5 331q0 27 -2 80v80q0 162 27 240q18 49 90 49q55 0 61 -43q0 -10 6 -150q6 -170 6 -317q0 -285 -22 -535q-6 -76 -27 -221q0 -6 -29.5 -25.5t-35.5 -19.5t-17.5 8t-17.5 8q-8 0 -14 -14q-27 25 -56 66q-4 22 -4 131z" />
<glyph unicode="m" horiz-adv-x="1054" d="M4 1102v8q-2 90 98 90q59 0 80 -10q8 -14 8 -39q0 -16 -5 -46t-5 -44q0 -18 13 -19q23 0 95 30t111 30q49 0 109.5 -56.5t83.5 -56.5q29 0 109.5 22.5t125.5 22.5q184 0 185 -254q0 -360 -37 -559q-8 -47 -29 -131q-10 -27 -59 -27q-27 0 -53 19q-45 31 -46 111 q0 86 32 247.5t32 241.5q0 109 -33 197q-12 33 -39 32q-25 0 -60.5 -26.5t-47.5 -48.5q-8 -14 -8 -31q0 -27 20.5 -77t20.5 -77q0 -39 -34 -63.5t-73 -24.5q-18 0 -31 12q-37 33 -55 119q-25 113 -33 133q-59 127 -125 127q-45 0 -84 -44t-51 -91q-18 -74 -18 -145 q0 -43 9 -129t9 -131q0 -25 -2 -76v-76v-41q2 -29 2 -43q0 -8 -2 -26v-29q0 -29 8 -49q-88 -51 -112 -51q-23 0 -43 14q-6 18 -37 37q20 147 20 297q0 131 -22 366q-25 254 -27 365z" />
<glyph unicode="n" horiz-adv-x="684" d="M37 803q0 43 4 67q6 43 6 84q0 10 -2 31t-2 31q0 80 100 80q78 0 78 -58q0 -12 -5 -36.5t-5 -36.5q25 2 88 12q53 8 86 8q76 0 113 -49q133 -170 133 -375q0 -45 -5 -134t-5 -134q0 -57 2 -103q2 -14 9 -51t7 -57q0 -82 -90 -82q-68 0 -82 72q-4 18 -4 123q0 47 5 142 t5 142q0 141 -65 303q-29 70 -64 70q-37 0 -78 -14q-51 -18 -55 -47q-12 -84 -12 -201q0 -57 7 -172t7 -172q0 -123 -8 -166t-74 -43q-70 0 -74 69q0 -2 0 314q0 66 -8 160q-12 129 -12 223z" />
<glyph unicode="o" horiz-adv-x="761" d="M6 655q0 244 139 310q106 49 252 49q182 0 226 -84q78 -150 77 -295q0 -195 -143 -273q-68 -39 -174 -38q-160 0 -293 122q-84 76 -84 209zM176 686q0 -94 67.5 -162.5t162.5 -68.5q125 0 124 153q0 70 -26 160q-35 113 -119 113q-14 0 -42 2t-42 2q-63 0 -86 -39 q-39 -78 -39 -160z" />
<glyph unicode="p" horiz-adv-x="595" d="M0 844q0 115 8 168q6 35 55 35q80 0 80 -52q0 -8 -3 -23.5t-3 -25.5q0 -37 58 -37q10 0 32.5 2t34.5 2q55 0 144 -51q147 -86 147 -344q0 -350 -367 -477q-10 -4 -11 -11t-3 -12q-8 -27 -8 -59q0 -20 3 -57t3 -56q0 -111 -86 -110q-45 0 -55 35q-16 61 -17 131 q0 37 5.5 108.5t5.5 106.5v20v21q0 10 3 27.5t4 26.5t1 42q0 98 -15.5 295t-15.5 295zM150 723q0 -74 11 -221.5t11 -220.5q0 -10 -2 -30t-2 -30q0 -41 35 -41t94 64l22 22q39 43 58 92q35 100 35 158q0 70 -27 141q-20 49 -76.5 90t-109.5 41q-27 0 -49 -10v-55z" />
<glyph unicode="q" horiz-adv-x="681" d="M0 459q0 131 63 260q70 141 181 188q12 4 82 8q49 2 66 34l36 65q23 27 68 26q70 0 69 -45q0 -14 -7 -39.5t-7 -40.5q0 -27 31.5 -52t31.5 -38q0 -16 -14 -30q-20 -6 -47 -25q-43 -80 -43 -231q0 -96 18 -209q2 -10 35 -30.5t33 -43.5t-38 -48.5t-42 -43.5q-6 -31 -6 -78 q0 -31 6 -94.5t6 -95.5q0 -166 -92 -166q-82 0 -82 135q0 23 2 69t2 68q0 59 -14 100q-27 -10 -57 -10q-45 0 -121 35l-60 41q-100 72 -100 291zM145 481q0 -63 25 -131q29 -80 74 -106q20 -14 53 -15q35 0 41 11q2 2 10 36q35 133 35 316q0 84 -8 213q-88 0 -125 -41 q-105 -119 -105 -283z" />
<glyph unicode="r" horiz-adv-x="528" d="M-43 408q0 29 60.5 98t60.5 129q0 41 -13.5 125t-13.5 125q0 37 2 49q6 23 25 53q8 12 42 21.5t42 15.5q6 -8 30.5 -15.5t24.5 -21.5q0 -23 -5 -66.5t-5 -66.5q0 -53 22 -88l127 125q86 76 150 90q8 2 31 2q49 0 49 -41q0 -33 -33 -57q-143 -104 -209 -180 q-98 -113 -115 -244q-4 -39 -4 -86q0 -37 4 -112t4 -111q0 -78 -12 -107q-20 -45 -90 -45q-23 0 -31 9t-16 22q-12 37 -12 86q0 27 5 80t5 79q0 82 -21 82q-8 0 -25.5 -9t-27.5 -9q-18 0 -34.5 25t-16.5 43z" />
<glyph unicode="s" horiz-adv-x="708" d="M0 311.5q0 18.5 22.5 49t36.5 30.5q111 0 119 -55q12 -88 60 -146q6 -10 20 -24q49 -33 92 -33q55 0 91 45t36 101q0 66 -46 136t-105 97q-98 45 -136 92q-47 55 -47 154q0 125 68 200q25 29 141 68q18 6 43 6q70 0 154 -59l67 -45q41 -31 41 -62q0 -33 -26.5 -56.5 t-59.5 -23.5q-23 0 -77 41t-84 41q-37 0 -61.5 -33.5t-24.5 -72.5q0 -23 10 -39q23 -43 104.5 -94t110.5 -97q94 -145 94 -278q0 -115 -82 -183.5t-201 -68.5q-96 0 -202 43q-117 45 -129 176q-2 14 -15.5 43t-13.5 47.5z" />
<glyph unicode="t" horiz-adv-x="927" d="M0 602q0 47 45 76t154.5 31t158.5 36q12 2 13 35q0 16 -14.5 63.5t-14.5 74.5q0 23 4 57q4 45 4 59q0 -12 0 37q0 37 17 53q35 35 79 35q78 0 78 -92q0 -18 -2 -57v-58q0 -86 10 -215q2 -25 22.5 -32t90.5 -13q61 -6 123 -10q72 -8 119 -27q35 -16 35 -53q0 -10 -2 -14 q-27 -70 -127 -70q-37 0 -111 15.5t-111 15.5q-12 0 -22 -2q-20 -47 -21 -139q0 -45 6.5 -133.5t6.5 -131.5q0 -78 -15 -102q-20 -41 -88 -41q-88 0 -88 78v461q0 20 -24 24q-8 2 -25 2q-35 0 -101.5 -18.5t-101.5 -18.5t-66.5 21.5t-31.5 52.5z" />
<glyph unicode="u" horiz-adv-x="755" d="M53 465q0 33 3 101.5t3 103.5q0 29 -2 85t-2 85q0 90 8 123q18 72 82 71q70 0 70 -67q0 -16 -4 -47t-4 -48q0 -45 -4 -137t-4 -137q0 -188 45 -307q31 -76 127 -76q18 0 35 6q70 18 104 168q23 106 22 221q0 170 -69 353q-4 16 -4 26q0 33 27.5 50.5t60.5 17.5 q72 0 102 -96q0 -2 27 -154q10 -55 10 -121q0 -29 -2 -86t-2 -84v-22q2 -14 2 -21q0 -4 -10 -10t-10 -10t2 -15v-14q0 -53 -27 -125q-35 -88 -117 -147.5t-174 -59.5q-70 0 -207 64q-35 16 -41 20q-16 12 -22 39q-25 94 -25 250z" />
<glyph unicode="v" horiz-adv-x="706" d="M2 874q0 12 23 29l34 23q25 23 56 22q33 0 45 -22q35 -72 67.5 -238t67.5 -242q2 -4 4 -4q8 0 25 33q4 45 57 221q14 2 29 15l57 145q45 84 118.5 84t73.5 -57q0 -45 -42 -108.5t-42 -74.5q0 -8 3.5 -22t3.5 -21q0 -12 -25 -69q-31 -70 -35 -76q-57 -139 -164 -422 q-31 -88 -122 -88q-41 0 -62.5 16.5t-21.5 57.5q0 -8 4 30q4 31 4 60q0 92 -29 188q-129 440 -129 520z" />
<glyph unicode="w" horiz-adv-x="1062" d="M0 702q0 39 27.5 70t66.5 31q25 0 41 -21q41 -51 94 -204q59 -170 95 -226l77 193q12 37 39 106q20 47 78 47q51 0 74 -41q16 -33 49 -135q27 -86 61 -131q31 72 56 178l43 185q37 154 67 194q18 29 70 29q68 0 63 -41v-4q-18 -246 -135 -645q-72 -242 -93 -264.5 t-66 -22.5q-78 0 -78 51q0 12 4 36t4 36q0 102 -117 254l-4 4q-12 0 -16 -29l-58 -162q-45 -111 -96 -129q-14 -4 -35 -4q-35 0 -45 15q-6 8 -30 51q-76 137 -140 358q-8 29 -55 111q-41 69 -41 110z" />
<glyph unicode="x" horiz-adv-x="698" d="M2 926q0 61 84 61q72 0 115 -71.5t75 -71.5q27 0 37 53q16 70 21 76q29 47 84 47q27 0 54.5 -14.5t27.5 -38.5q0 -80 -90 -224q-20 -35 -21 -63q0 -51 62 -121q76 -86 86 -107.5t75 -109.5q47 -68 47 -113q0 -70 -86 -69q-55 0 -94 63l-55 111q-43 72 -53 86 q-33 49 -70 74q-31 -57 -90 -256l-31 -91q-20 -45 -129 -45q0 14 -16.5 35t-16.5 43q0 84 181 486q-31 27 -79 96t-87 102q-31 25 -31 62z" />
<glyph unicode="y" horiz-adv-x="618" d="M-6 -127q0 57 45 70q55 14 43 14q20 0 43 -43q29 -53 37 -61q37 -33 63 -33q68 0 115 94q37 80 37 154q0 88 -10 114q-2 10 -33 17q-39 8 -43 10q-10 6 -35 15t-70 36q-121 145 -147 496q-12 174 -12 309q0 61 73 61q47 0 86 -22q-4 -180 -4 -213q0 -336 115 -502 q6 -10 70 -27q0 2 14 353q8 213 45 350q12 49 80 49q33 0 67 -10q-39 -367 -38 -500v-26v-25q0 -20 -8.5 -60t-8.5 -61q0 -68 55 -67q8 0 27 2h25q51 0 51 -60q0 -57 -65.5 -82.5t-69.5 -48.5q-23 -197 -43 -254q-45 -121 -168 -192q-53 -29 -123 -29q-78 0 -141 45 q-72 49 -72 127z" />
<glyph unicode="z" horiz-adv-x="903" d="M0 100q72 68 164 217q102 166 156.5 227.5t121.5 155.5q20 33 64 93q23 27 22 28q0 14 -45 15q-14 0 -127 -25q-53 -10 -125 -55q-59 -39 -84 -39q-6 0 -18 2h-20q-18 0 -27 12q-20 29 -21 41q0 37 82 74l113 47q25 12 113 37l67 18q66 8 189 45q12 6 55 62q35 43 86 43 q45 0 78 -17q14 -8 14 -32q0 -8 -3 -13.5t-101 -130.5q-109 -139 -179 -244l-163 -212q-94 -127 -117 -236q63 -25 139 -25q59 0 175 21.5t173 21.5q29 0 58.5 -16t29.5 -43q0 -41 -39 -59q-47 -23 -135 -27q-115 -6 -139 -10q-43 -10 -88 -10q-43 0 -128 11t-128 11 q-61 -88 -129 -88q-53 0 -78 49q-2 6 -2 10t5 13.5t5 13.5q0 8 -14 14z" />
<glyph unicode="{" horiz-adv-x="667" d="M0 688q0 59 72 96l135 54q70 27 69 67q0 18 -20 63.5t-20 82.5q0 94 86 177t182 83q45 0 90 -21q53 -25 53 -67q0 -49 -67 -70q-14 -4 -109 -18q-33 -4 -33 -82q0 -27 16.5 -77t16.5 -77q0 -41 -48 -99.5t-48 -107.5t37 -140t37 -138q0 -31 -20.5 -86.5t-20.5 -83.5 q0 -33 26 -60q16 -18 105 -39q72 -16 71 -61q0 -27 -18 -35q-84 -49 -156 -49q-78 0 -139 49q-76 59 -76 184q0 33 19.5 93.5t19.5 93.5q0 16 -8 43l-21 94q-16 68 -47 72q-6 2 -14 2q-18 0 -54 -6.5t-55 -6.5q-61 0 -61 70z" />
<glyph unicode="|" horiz-adv-x="344" d="M0 25q6 57 57 362q37 221 37 363q0 27 -3 78t-3 75q0 111 19 262q2 33 10 92q14 53 73 54q43 0 66 -64q20 -51 18 -102v-10q-6 -180 -32 -451q-45 -430 -45 -451q-8 -88 -17 -129q-20 -90 -59 -102q-8 -2 -23 -2q-27 0 -59 12q-8 5 -39 13z" />
<glyph unicode="}" horiz-adv-x="753" d="M0 51q4 -2 8 -2q6 0 15.5 11.5t13.5 13.5l-19.5 8t-9.5 12q0 29 49 60l146 67q86 47 104 115q4 18 27.5 202.5t23.5 198.5q0 10 -10 25.5t-12 25.5q-6 25 -6 37q0 29 15 81t15 81q0 14 -3 25.5t-19 28t-170 85.5q-119 53 -119 111q0 33 25 47q45 27 69 27q18 0 39 -13 q47 -31 146.5 -74.5t144.5 -70.5q70 -43 70 -139q0 -57 -25 -125q0 -2 -2 -10.5t-2 -12.5q0 -25 94 -63q104 -41 129 -80q16 -29 17 -45q0 -4 -2 -6l-33 -33q-20 -20 -60 -21q-29 0 -71 19q-53 23 -70 27q-20 -49 -20 -119q0 -27 4 -82t4 -82q0 -68 -17 -111 q-23 -57 -92 -106l-121 -76l-71 -55q-49 -33 -80 -33q-14 0 -31 8q-27 4 -53 10q-33 8 -41 33z" />
<glyph unicode="~" horiz-adv-x="559" d="M25 1442q0 68 59 131q37 41 78 41h8q6 0 17.5 3t19.5 3q20 0 57 -20.5t51 -38.5q18 -27 41 -54q2 -2 17 -2q18 0 20 17v28q2 16 12.5 27.5t43.5 11.5q66 0 66 -39.5t-19 -91.5q-16 -45 -54 -63l7 -4q-78 -20 -89 -21q-76 0 -114 68q-12 25 -18.5 31t-26.5 18l-8 4 q-4 0 -17 -4q-18 -4 -27.5 -42t-46.5 -50q-10 -2 -18 -4q-20 0 -39.5 16.5t-19.5 34.5z" />
<glyph unicode="&#xa3;" horiz-adv-x="1161" d="M4 709q10 51 68 75q53 18 104 39q6 0 6 20.5t-6 20.5q-90 70 -90 142q0 29 16 55q23 35 73 67l99 64l117 78q70 41 127 41q33 0 66.5 -13.5t33.5 -54.5q0 -12 -10 -20q-160 -86 -227 -170q-18 -23 -19 -56q0 -45 60 -149q6 -18 24 -19q10 0 47 11.5t56 11.5 q29 0 52.5 -19.5t23.5 -46.5q0 -37 -39 -53q-27 -16 -79 -26.5t-61 -22.5q-53 -76 -84 -221q-33 -166 -63 -227q0 -16 16 -33q135 -27 392 -41q5 0 10 -1q75 0 164 81q115 109 153 125q51 20 68 20q27 0 39 -20q2 -4 6 -33q4 -20 18 -25q2 -2 2 -6q0 -6 -4 -14l-6 -21 q-131 -133 -178 -168q-106 -84 -215 -94q-55 -6 -117 -6q-102 0 -285 20q-201 23 -284 27q-27 14 -41 41q-2 13 -2 28q0 68 41 150q70 143 76 164q39 90 38 135q0 57 -43 58q-12 0 -44.5 -7.5t-49.5 -7.5q-14 0 -24 2q-29 15 -30 59q0 18 5 40z" />
<glyph unicode="&#xa8;" horiz-adv-x="620" d="M8 1468q0 35 21.5 70t52.5 35q43 0 92 -57l33.5 -32t17.5 -40.5t-26.5 -52t-53.5 -33.5q-10 -2 -30 -2q-45 0 -76 32.5t-31 79.5zM332 1417q0 74 17.5 103.5t62.5 29.5h26q37 0 56 -22q37 -43 36 -94q0 -43 -26.5 -74t-69.5 -31q-27 0 -51 21q-51 36 -51 67z" />
<glyph unicode="&#xaa;" horiz-adv-x="747" d="M0 268q0 104 43 172l45 66q29 37 59 49q39 18 60 18q23 0 69 -4t68 -4q135 0 135 117q0 33 -22 141q-6 41 -66 90q-12 10 -24.5 10.5t-24.5 -10.5q-55 -39 -63 -69l-17 -92q-6 -20 -33.5 -35t-52.5 -15q-61 0 -61 54q0 113 80 239q27 41 86 62q82 27 106 26q20 0 41 -8 l70 -33q45 -23 57 -41q74 -121 74 -231q0 -45 -19 -176q-18 -90 -55 -303q-1 -8 -1 -15q0 -37 26 -69l30 -23q16 -12 17 -37q0 -37 -19 -55q-6 -6 -47 -31q-106 -61 -233 -61q-96 0 -187 31q-70 25 -108 96q-33 63 -33 141zM158 281q0 -18 6 -50q20 -98 108 -98 q104 0 131 57q0 8 -7 22.5t-7 25.5q0 25 13.5 73.5t13.5 73.5q0 61 -62 61h-24h-25q-68 0 -107.5 -48.5t-39.5 -116.5z" />
<glyph unicode="&#xad;" horiz-adv-x="759" d="M-6 623q0 45 45 75q35 25 90 25q18 0 58 -3t61 -3q53 0 160.5 8t162.5 8q33 0 62 -28.5t29 -59.5q0 -35 -44 -49q-141 -45 -317 -45q-174 0 -283 39q-24 8 -24 33z" />
<glyph unicode="&#xb2;" d="M74 172q0 51 86 61q29 2 81 7.5t72 21.5q170 145 305 668q14 55 15 61q0 23 -14.5 53.5t-34.5 30.5q-14 0 -49 -8q-74 -18 -158 -96q-98 -90 -146 -111q-12 -6 -26.5 -6t-77.5 49q-16 12 -16 31q0 35 18 55q12 14 90 82q104 94 191 133q102 47 225 47h49 q53 -4 106.5 -32.5t57.5 -67.5v-25q0 -199 -82 -442q-82 -250 -207 -414q37 -61 96 -69q10 1 22 0q53 0 138 -15q23 -8 67 -9t62 -7q61 -29 62 -84v-8q-25 -70 -144 -70q-41 0 -90 12q-133 29 -213 29q-29 0 -51 -2q-63 -8 -84 -78q-10 -31 -10 -121q-2 -74 -13 -100 q-16 -45 -71 -45q-74 0 -127 49q-29 29 -29 86q0 47 25 99q12 25 12 43q0 43 -78 98q-59 43 -59 94z" />
<glyph unicode="&#xb3;" d="M106 1151q0 49 57.5 77.5t158.5 43.5q147 23 163 26q53 12 99 13q100 0 184 -49q96 -53 96 -136q0 -49 -30 -118q-8 -16 -72 -131q211 -225 211 -459q0 -184 -154 -303q-143 -115 -340 -115q-205 0 -338 127q-25 23 -24 51q0 39 34.5 71t75.5 32q33 0 56 -23 q84 -80 217 -80q117 0 192 62q84 68 84 182q0 80 -44 167t-116 122q-20 12 -43 12q-20 0 -59 -11.5t-57 -11.5q-33 0 -56.5 28t-23.5 63q0 63 47 79q70 25 131 70q80 59 80 117q0 45 -47 73q-41 23 -90 23q-76 0 -234 -55q-41 -14 -74 -15q-84 0 -84 68z" />
<glyph unicode="&#xb4;" horiz-adv-x="372" d="M0 1397q0 -29 22.5 -48.5t51.5 -19.5q25 0 43 14q31 27 106 80q43 31 94 93q-8 4 -8 12q0 4 3 12t3 14q0 12 -24.5 36t-38.5 24q4 0 -12.5 -9.5t-120.5 -76.5q-119 -78 -119 -131z" />
<glyph unicode="&#xb9;" d="M285 1012q0 29 37 80q70 92 167 153q109 66 216 66q43 0 79 -11q10 -86 11 -188q0 -90 -29 -467q-4 -158 -6 -315q-8 -201 -62 -301q-14 -29 -80 -29q-59 0 -69 47q-2 6 -2 96q0 127 32.5 381t32.5 381q0 84 -12 178q-59 0 -92 -22q-14 -10 -66 -64q-14 -16 -26 -22 q-20 -10 -56 -10q-75 0 -75 47z" />
<glyph unicode="&#xba;" horiz-adv-x="761" d="M6 655q0 244 139 310q106 49 252 49q182 0 226 -84q78 -150 77 -295q0 -195 -143 -273q-68 -39 -174 -38q-160 0 -293 122q-84 76 -84 209zM176 686q0 -94 67.5 -162.5t162.5 -68.5q125 0 124 153q0 70 -26 160q-35 113 -119 113q-14 0 -42 2t-42 2q-63 0 -86 -39 q-39 -78 -39 -160z" />
<glyph unicode="&#xc0;" horiz-adv-x="696" d="M0 287v24q0 82 43 199l78 192l92 289q55 172 115 281q23 39 82 39q61 0 129 -35l61 -574q37 -352 37 -575q0 -127 -92 -127q-39 0 -51.5 16.5t-12.5 55.5q0 12 2 63q2 41 0 64l-6 129q-4 57 -31 245q-6 51 -55 52q-10 0 -29.5 -2t-29.5 -2t-26.5 6t-26.5 6q-37 0 -54 -37 q-6 -12 -22 -80q-33 -125 -72 -231q-14 -39 -57 -39q-68 0 -74 41zM123 1516q6 4 6 12q0 4 -2 12t-2 14q0 12 23.5 36t37.5 24q-2 0 13.5 -9.5l119.5 -76.5q121 -78 121 -131q0 -29 -23.5 -48.5t-51.5 -19.5q-25 0 -43 14q-29 27 -107 80q-43 32 -92 93zM299 797 q0 -47 65.5 -47t65.5 73q0 18 -2 60v59q-2 0 -14 23q-8 12 -23 12q-29 0 -47 -41q-10 -33 -22 -64q-23 -46 -23 -75z" />
<glyph unicode="&#xc1;" horiz-adv-x="696" d="M0 287v24q0 82 43 199l78 192l92 289q55 172 115 281q23 39 82 39q61 0 129 -35l61 -574q37 -352 37 -575q0 -127 -92 -127q-39 0 -51.5 16.5t-12.5 55.5q0 12 2 63q2 41 0 64l-6 129q-4 57 -31 245q-6 51 -55 52q-10 0 -29.5 -2t-29.5 -2t-26.5 6t-26.5 6q-37 0 -54 -37 q-6 -12 -22 -80q-33 -125 -72 -231q-14 -39 -57 -39q-68 0 -74 41zM260 1397q0 -29 22.5 -48.5t51.5 -19.5q25 0 43 14q31 27 106 80q43 31 95 93q-8 4 -9 12q0 4 3 12t3 14q0 12 -24.5 36t-38.5 24q4 0 -12.5 -9.5t-120.5 -76.5q-119 -78 -119 -131zM299 797 q0 -47 65.5 -47t65.5 73q0 18 -2 60v59q-2 0 -14 23q-8 12 -23 12q-29 0 -47 -41q-10 -33 -22 -64q-23 -46 -23 -75z" />
<glyph unicode="&#xc2;" horiz-adv-x="696" d="M0 287v24q0 82 43 199l78 192l92 289q55 172 115 281q23 39 82 39q61 0 129 -35l61 -574q37 -352 37 -575q0 -127 -92 -127q-39 0 -51.5 16.5t-12.5 55.5q0 12 2 63q2 41 0 64l-6 129q-4 57 -31 245q-6 51 -55 52q-10 0 -29.5 -2t-29.5 -2t-26.5 6t-26.5 6q-37 0 -54 -37 q-6 -12 -22 -80q-33 -125 -72 -231q-14 -39 -57 -39q-68 0 -74 41zM233 1415q0 25 19 41q43 37 65 60q12 12 105 98q78 -8 101.5 -21.5t64.5 -74.5l41 -62l30 -28q16 -15 17 -31q0 -25 -27.5 -48.5t-52.5 -23.5q-43 0 -64 45l-24 53l-39 41q-31 -12 -88 -57q-43 -35 -86 -35 q-62 0 -62 43zM299 797q0 -47 65.5 -47t65.5 73q0 18 -2 60v59q-2 0 -14 23q-8 12 -23 12q-29 0 -47 -41q-10 -33 -22 -64q-23 -46 -23 -75z" />
<glyph unicode="&#xc3;" horiz-adv-x="696" d="M0 287v24q0 82 43 199l78 192l92 289q55 172 115 281q23 39 82 39q61 0 129 -35l61 -574q37 -352 37 -575q0 -127 -92 -127q-39 0 -51.5 16.5t-12.5 55.5q0 12 2 63q2 41 0 64l-6 129q-4 57 -31 245q-6 51 -55 52q-10 0 -29.5 -2t-29.5 -2t-26.5 6t-26.5 6q-37 0 -54 -37 q-6 -12 -22 -80q-33 -125 -72 -231q-14 -39 -57 -39q-68 0 -74 41zM141 1436q0 68 60 131q37 41 78 41h8q6 0 17 3t20 3q20 0 57 -20.5t51 -39.5q18 -27 41 -53q2 -2 16 -2q18 0 21 17v28q2 16 12 27.5t43 11.5q66 0 66.5 -40t-19.5 -91q-16 -45 -53 -63l6 -5 q-78 -20 -88 -20q-76 0 -115 68q-12 25 -18 30.5t-27 18.5l-8 4q-4 0 -16 -4q-18 -4 -27.5 -42t-46.5 -50q-10 -2 -18 -5q-20 0 -40 17t-20 35zM299 797q0 -47 65.5 -47t65.5 73q0 18 -2 60v59q-2 0 -14 23q-8 12 -23 12q-29 0 -47 -41q-10 -33 -22 -64q-23 -46 -23 -75z " />
<glyph unicode="&#xc4;" horiz-adv-x="696" d="M0 287v24q0 82 43 199l78 192l92 289q55 172 115 281q23 39 82 39q61 0 129 -35l61 -574q37 -352 37 -575q0 -127 -92 -127q-39 0 -51.5 16.5t-12.5 55.5q0 12 2 63q2 41 0 64l-6 129q-4 57 -31 245q-6 51 -55 52q-10 0 -29.5 -2t-29.5 -2t-26.5 6t-26.5 6q-37 0 -54 -37 q-6 -12 -22 -80q-33 -125 -72 -231q-14 -39 -57 -39q-68 0 -74 41zM137 1499q0 35 21.5 70t52.5 35q43 0 92 -58q16 -16 33.5 -31.5t17.5 -40t-26.5 -52t-53.5 -33.5q-10 -2 -30 -3q-45 0 -76 33t-31 80zM299 797q0 -47 65.5 -47t65.5 73q0 18 -2 60v59q-2 0 -14 23 q-8 12 -23 12q-29 0 -47 -41q-10 -33 -22 -64q-23 -46 -23 -75zM461 1448q0 74 17.5 103.5t62.5 29.5h26q37 0 56 -22q37 -43 36 -95q0 -43 -26.5 -73.5t-69.5 -30.5q-27 0 -51 20q-51 37 -51 68z" />
<glyph unicode="&#xc5;" horiz-adv-x="696" d="M0 287v24q0 82 43 199l78 192l92 289q55 172 115 281q23 39 82 39q61 0 129 -35l61 -574q37 -352 37 -575q0 -127 -92 -127q-39 0 -51.5 16.5t-12.5 55.5q0 12 2 63q2 41 0 64l-6 129q-4 57 -31 245q-6 51 -55 52q-10 0 -29.5 -2t-29.5 -2t-26.5 6t-26.5 6q-37 0 -54 -37 q-6 -12 -22 -80q-33 -125 -72 -231q-14 -39 -57 -39q-68 0 -74 41zM299 797q0 -47 65.5 -47t65.5 73q0 18 -2 60v59q-2 0 -14 23q-8 12 -23 12q-29 0 -47 -41q-10 -33 -22 -64q-23 -46 -23 -75z" />
<glyph unicode="&#xc7;" horiz-adv-x="745" d="M0 475q0 211 90 402.5t250 332.5q117 100 227 101q109 0 131 -49q2 -8 2 -27q0 -47 -41 -76q-4 -2 -143 -76q-84 -43 -123 -108q-170 -285 -170 -463q0 -133 58 -240q39 -76 141 -75q84 0 164 34q31 12 53 13q37 0 73 -23.5t36 -58.5q0 -41 -34 -82t-102 -55 q-61 -6 -120 -15q-18 -92 -70 -151q-59 -66 -141 -66q-133 0 -176.5 21.5t-43.5 66.5q0 31 21.5 55.5t54.5 24.5q18 0 37 -8q80 -41 107 -41q55 0 63 88q-76 6 -131 39q-213 127 -213 436z" />
<glyph unicode="&#xc8;" horiz-adv-x="792" d="M68 598q0 96 4 104q12 4 37 15q45 20 45 162q0 25 -7 63q-6 49 -8 62q-5 50 -4 84q0 26 2 42q14 104 15 117q2 25 43 44.5t67 19.5q57 0 68 -21q6 -8 6 -71q0 -43 88 -43q33 0 98.5 3t95.5 3q176 0 177 -37q0 -74 -13 -86q-28 -32 -134 -32q-18 0 -38 1q-127 6 -157 6 q-2 0 -91 -16q-12 -12 -40 -23q-8 -2 -9 -47q0 -25 5.5 -69.5t5.5 -67.5q0 -8 -3.5 -25.5t-3.5 -25.5q0 -37 37 -37t109 15.5t108 15.5q98 0 105 -47q1 -6 1 -12q0 -73 -128 -103l-203 -41q-25 -25 -24 -51q0 -43 10 -135q12 -102 24 -136q33 -33 41 -32q51 0 145.5 36.5 t143.5 36.5q25 0 51.5 -25.5t26.5 -54.5q0 -55 -135 -94l-189 -41q-164 -43 -319 -43q-35 0 -35 72q0 35 13.5 55.5t39 23.5t31.5 13q11 19 11 78q0 10 -1 20q-4 106 -6 138q-8 94 -27 133q-12 27 -55 26q-24 0 -24 27zM236 1516q6 4 6 12q0 4 -2 12t-2 14q0 12 23.5 36 t37.5 24q-2 0 13.5 -9.5l119.5 -76.5q121 -78 121 -131q0 -29 -23.5 -48.5t-52.5 -19.5q-25 0 -43 14q-29 27 -106 80q-43 32 -92 93z" />
<glyph unicode="&#xc9;" horiz-adv-x="792" d="M68 598q0 96 4 104q12 4 37 15q45 20 45 162q0 25 -7 63q-6 49 -8 62q-5 50 -4 84q0 26 2 42q14 104 15 117q2 25 43 44.5t67 19.5q57 0 68 -21q6 -8 6 -71q0 -43 88 -43q33 0 98.5 3t95.5 3q176 0 177 -37q0 -74 -13 -86q-28 -32 -134 -32q-18 0 -38 1q-127 6 -157 6 q-2 0 -91 -16q-12 -12 -40 -23q-8 -2 -9 -47q0 -25 5.5 -69.5t5.5 -67.5q0 -8 -3.5 -25.5t-3.5 -25.5q0 -37 37 -37t109 15.5t108 15.5q98 0 105 -47q1 -6 1 -12q0 -73 -128 -103l-203 -41q-25 -25 -24 -51q0 -43 10 -135q12 -102 24 -136q33 -33 41 -32q51 0 145.5 36.5 t143.5 36.5q25 0 51.5 -25.5t26.5 -54.5q0 -55 -135 -94l-189 -41q-164 -43 -319 -43q-35 0 -35 72q0 35 13.5 55.5t39 23.5t31.5 13q11 19 11 78q0 10 -1 20q-4 106 -6 138q-8 94 -27 133q-12 27 -55 26q-24 0 -24 27zM401 1397q0 -29 22.5 -48.5t51.5 -19.5q25 0 43 14 q31 27 107 80q43 31 94 93q-8 4 -8 12q0 4 3 12t3 14q0 12 -24.5 36t-39.5 24q4 0 -12 -9.5t-121 -76.5q-119 -78 -119 -131z" />
<glyph unicode="&#xca;" horiz-adv-x="792" d="M68 598q0 96 4 104q12 4 37 15q45 20 45 162q0 25 -7 63q-6 49 -8 62q-5 50 -4 84q0 26 2 42q14 104 15 117q2 25 43 44.5t67 19.5q57 0 68 -21q6 -8 6 -71q0 -43 88 -43q33 0 98.5 3t95.5 3q176 0 177 -37q0 -74 -13 -86q-28 -32 -134 -32q-18 0 -38 1q-127 6 -157 6 q-2 0 -91 -16q-12 -12 -40 -23q-8 -2 -9 -47q0 -25 5.5 -69.5t5.5 -67.5q0 -8 -3.5 -25.5t-3.5 -25.5q0 -37 37 -37t109 15.5t108 15.5q98 0 105 -47q1 -6 1 -12q0 -73 -128 -103l-203 -41q-25 -25 -24 -51q0 -43 10 -135q12 -102 24 -136q33 -33 41 -32q51 0 145.5 36.5 t143.5 36.5q25 0 51.5 -25.5t26.5 -54.5q0 -55 -135 -94l-189 -41q-164 -43 -319 -43q-35 0 -35 72q0 35 13.5 55.5t39 23.5t31.5 13q11 19 11 78q0 10 -1 20q-4 106 -6 138q-8 94 -27 133q-12 27 -55 26q-24 0 -24 27zM305 1399q0 25 19 41q43 37 65 59q12 12 105 98 q78 -8 101 -21t64 -75l41 -61l31 -28q16 -15 17 -32q0 -25 -28 -48t-52 -23q-43 0 -64 45l-24 53l-39 41q-31 -12 -88 -57q-43 -35 -86 -35q-62 0 -62 43z" />
<glyph unicode="&#xcb;" horiz-adv-x="792" d="M68 598q0 96 4 104q12 4 37 15q45 20 45 162q0 25 -7 63q-6 49 -8 62q-5 50 -4 84q0 26 2 42q14 104 15 117q2 25 43 44.5t67 19.5q57 0 68 -21q6 -8 6 -71q0 -43 88 -43q33 0 98.5 3t95.5 3q176 0 177 -37q0 -74 -13 -86q-28 -32 -134 -32q-18 0 -38 1q-127 6 -157 6 q-2 0 -91 -16q-12 -12 -40 -23q-8 -2 -9 -47q0 -25 5.5 -69.5t5.5 -67.5q0 -8 -3.5 -25.5t-3.5 -25.5q0 -37 37 -37t109 15.5t108 15.5q98 0 105 -47q1 -6 1 -12q0 -73 -128 -103l-203 -41q-25 -25 -24 -51q0 -43 10 -135q12 -102 24 -136q33 -33 41 -32q51 0 145.5 36.5 t143.5 36.5q25 0 51.5 -25.5t26.5 -54.5q0 -55 -135 -94l-189 -41q-164 -43 -319 -43q-35 0 -35 72q0 35 13.5 55.5t39 23.5t31.5 13q11 19 11 78q0 10 -1 20q-4 106 -6 138q-8 94 -27 133q-12 27 -55 26q-24 0 -24 27zM127 1487q0 35 21.5 69.5t52.5 34.5q43 0 92 -57 q16 -16 33.5 -31.5t17.5 -40t-26.5 -52.5t-53.5 -34q-10 -2 -31 -2q-45 0 -75.5 33t-30.5 80zM451 1436q0 74 17 103.5t62 29.5h27q37 0 55 -23q37 -43 37 -94q0 -43 -26.5 -73.5t-69.5 -30.5q-27 0 -51 20q-51 37 -51 68z" />
<glyph unicode="&#xcc;" horiz-adv-x="829" d="M0 172q0 76 98 90l142 4q49 6 92 27q10 74 10 149q0 66 -7 227.5t-7 225.5v27q2 18 2 26q0 39 -39 39q-29 0 -112 -13t-111 -13q-55 0 -56 118q0 6 2 13q20 25 76 38l86 21q4 0 78 8q43 6 59.5 45t96.5 49q8 1 15 1q29 0 46 -13q10 -8 43 -47q16 -23 55 -23 q18 0 61.5 8.5t61.5 8.5q43 -2 62 -6q33 -8 51 -35q2 -4 2 -68q0 -31 -53 -45q-39 -12 -78 -12q-27 0 -76 5t-74 5q-14 0 -29.5 -15.5t-16.5 -28.5t-1 -52q0 -76 15.5 -277.5t15.5 -279.5v-23v-24q0 -41 49 -66q6 -1 13 0q23 0 63 4q61 4 88 4q111 0 102 -75q2 -61 -94 -74 l-158 -4q-66 -6 -72.5 -43t-82.5 -37q-49 0 -66 6q-29 10 -28 45q0 16 -17 19q16 -2 -33 -2q-76 0 -113.5 -5.5t-64.5 -5.5q-49 0 -65 8q-31 15 -31 66zM125 1516q6 4 6 12q0 4 -2 12t-2 14q0 12 23.5 36t37.5 24q-2 0 13.5 -9.5l120.5 -76.5q121 -78 120 -131 q0 -29 -23.5 -48.5t-51.5 -19.5q-25 0 -43 14q-29 27 -107 80q-43 32 -92 93z" />
<glyph unicode="&#xcd;" horiz-adv-x="829" d="M0 172q0 76 98 90l142 4q49 6 92 27q10 74 10 149q0 66 -7 227.5t-7 225.5v27q2 18 2 26q0 39 -39 39q-29 0 -112 -13t-111 -13q-55 0 -56 118q0 6 2 13q20 25 76 38l86 21q4 0 78 8q43 6 59.5 45t96.5 49q8 1 15 1q29 0 46 -13q10 -8 43 -47q16 -23 55 -23 q18 0 61.5 8.5t61.5 8.5q43 -2 62 -6q33 -8 51 -35q2 -4 2 -68q0 -31 -53 -45q-39 -12 -78 -12q-27 0 -76 5t-74 5q-14 0 -29.5 -15.5t-16.5 -28.5t-1 -52q0 -76 15.5 -277.5t15.5 -279.5v-23v-24q0 -41 49 -66q6 -1 13 0q23 0 63 4q61 4 88 4q111 0 102 -75q2 -61 -94 -74 l-158 -4q-66 -6 -72.5 -43t-82.5 -37q-49 0 -66 6q-29 10 -28 45q0 16 -17 19q16 -2 -33 -2q-76 0 -113.5 -5.5t-64.5 -5.5q-49 0 -65 8q-31 15 -31 66zM324 1397q0 -29 22.5 -48.5t50.5 -19.5q25 0 43 14q31 27 107 80q43 31 94 93q-8 4 -8 12q0 4 3 12t3 14q0 12 -24.5 36 t-39.5 24q4 0 -12 -9.5t-121 -76.5q-118 -78 -118 -131z" />
<glyph unicode="&#xce;" horiz-adv-x="829" d="M0 172q0 76 98 90l142 4q49 6 92 27q10 74 10 149q0 66 -7 227.5t-7 225.5v27q2 18 2 26q0 39 -39 39q-29 0 -112 -13t-111 -13q-55 0 -56 118q0 6 2 13q20 25 76 38l86 21q4 0 78 8q43 6 59.5 45t96.5 49q8 1 15 1q29 0 46 -13q10 -8 43 -47q16 -23 55 -23 q18 0 61.5 8.5t61.5 8.5q43 -2 62 -6q33 -8 51 -35q2 -4 2 -68q0 -31 -53 -45q-39 -12 -78 -12q-27 0 -76 5t-74 5q-14 0 -29.5 -15.5t-16.5 -28.5t-1 -52q0 -76 15.5 -277.5t15.5 -279.5v-23v-24q0 -41 49 -66q6 -1 13 0q23 0 63 4q61 4 88 4q111 0 102 -75q2 -61 -94 -74 l-158 -4q-66 -6 -72.5 -43t-82.5 -37q-49 0 -66 6q-29 10 -28 45q0 16 -17 19q16 -2 -33 -2q-76 0 -113.5 -5.5t-64.5 -5.5q-49 0 -65 8q-31 15 -31 66zM201 1391q0 25 18 41q43 37 66 59q12 12 104 98q78 -8 101.5 -21.5t64.5 -74.5l41 -61l31 -28q16 -15 16 -32 q0 -25 -27.5 -48.5t-52.5 -23.5q-43 0 -63 46l-25 53l-39 41q-31 -12 -88 -58q-43 -35 -86 -34q-61 0 -61 43z" />
<glyph unicode="&#xcf;" horiz-adv-x="829" d="M0 172q0 76 98 90l142 4q49 6 92 27q10 74 10 149q0 66 -7 227.5t-7 225.5v27q2 18 2 26q0 39 -39 39q-29 0 -112 -13t-111 -13q-55 0 -56 118q0 6 2 13q20 25 76 38l86 21q4 0 78 8q43 6 59.5 45t96.5 49q8 1 15 1q29 0 46 -13q10 -8 43 -47q16 -23 55 -23 q18 0 61.5 8.5t61.5 8.5q43 -2 62 -6q33 -8 51 -35q2 -4 2 -68q0 -31 -53 -45q-39 -12 -78 -12q-27 0 -76 5t-74 5q-14 0 -29.5 -15.5t-16.5 -28.5t-1 -52q0 -76 15.5 -277.5t15.5 -279.5v-23v-24q0 -41 49 -66q6 -1 13 0q23 0 63 4q61 4 88 4q111 0 102 -75q2 -61 -94 -74 l-158 -4q-66 -6 -72.5 -43t-82.5 -37q-49 0 -66 6q-29 10 -28 45q0 16 -17 19q16 -2 -33 -2q-76 0 -113.5 -5.5t-64.5 -5.5q-49 0 -65 8q-31 15 -31 66zM131 1475q0 35 21.5 69.5t52.5 34.5q43 0 92 -57q16 -16 33.5 -31.5t17.5 -40.5t-26.5 -52.5t-53.5 -33.5 q-10 -2 -30 -2q-45 0 -76 33t-31 80zM455 1423q0 74 17 103.5t63 29.5h26q37 0 55 -22q37 -43 37 -94q0 -43 -26.5 -74t-69.5 -31q-27 0 -51 21q-51 36 -51 67z" />
<glyph unicode="&#xd1;" horiz-adv-x="811" d="M0 1159q0 25 14 43q18 2 47 12l62 50q59 47 94 47q57 0 57 -119q0 -59 -26 -139q33 -51 133 -232q131 -231 168 -231q27 0 26 31q0 162 -34 417l-19 140q-8 59 -8 61q0 18 47 35q39 10 66 10q33 0 39 -24q45 -160 59 -484q4 -164 20 -489q-27 -27 -26 -86q0 -18 4 -55 t4 -56q0 -90 -98 -90q-31 0 -51 55q-12 43 -13 84v33q2 23 2 35q0 63 -49 147q-12 20 -88 131l-92 129q-45 66 -55 66q-12 0 -27.5 -11.5t-15.5 -23.5q0 -84 9 -251t9 -244q0 -55 -92 -56q-47 0 -51 31q-23 131 -23 321q0 53 2 161t2 161q0 18 2 57t2 60q0 76 -22 125 q-2 4 -47 71q-31 47 -31 78zM113 1442q0 68 59 131q37 41 78 41h8q6 0 17.5 3t19.5 3q20 0 57 -20.5t51 -38.5q18 -27 41 -54q2 -2 17 -2q18 0 20 17v28q2 16 12.5 27.5t43.5 11.5q66 0 66 -39.5t-19 -91.5q-16 -45 -54 -63l7 -4q-78 -20 -88 -21q-76 0 -115 68 q-12 25 -18.5 31t-26.5 18l-8 4q-4 0 -17 -4q-18 -4 -27.5 -42t-46.5 -50q-10 -2 -18 -4q-20 0 -39.5 16.5t-19.5 34.5z" />
<glyph unicode="&#xd2;" horiz-adv-x="876" d="M0 467q0 303 121 494q25 41 91.5 101t90.5 97q-2 4 -10 16.5t-8 16.5q0 6 3 23.5t3 25.5q0 35 4 43q14 27 55 27q25 0 43 -11q10 -10 33 -26q203 -156 215 -166q117 -104 160 -215q12 -33 12 -39q0 -41 -12 -156q-47 -401 -269 -569q-72 -55 -174 -55q-115 0 -206 51 q-102 57 -129 160q-23 82 -23 182zM172 1516q6 4 6 12q0 4 -2 12t-2 14q0 12 23.5 36t38.5 24q-2 0 13 -9.5l120 -76.5q121 -78 120 -131q0 -29 -23.5 -48.5t-51.5 -19.5q-25 0 -43 14q-29 27 -107 80q-43 32 -92 93zM178 518q0 -104 25 -192q23 -74 92 -99q49 -18 76 -18 q35 0 63 27q94 84 150 223q51 129 51 264q0 113 -53 182l-131 139q-129 -18 -209 -213q-64 -157 -64 -313z" />
<glyph unicode="&#xd3;" horiz-adv-x="876" d="M0 467q0 303 121 494q25 41 91.5 101t90.5 97q-2 4 -10 16.5t-8 16.5q0 6 3 23.5t3 25.5q0 35 4 43q14 27 55 27q25 0 43 -11q10 -10 33 -26q203 -156 215 -166q117 -104 160 -215q12 -33 12 -39q0 -41 -12 -156q-47 -401 -269 -569q-72 -55 -174 -55q-115 0 -206 51 q-102 57 -129 160q-23 82 -23 182zM178 518q0 -104 25 -192q23 -74 92 -99q49 -18 76 -18q35 0 63 27q94 84 150 223q51 129 51 264q0 113 -53 182l-131 139q-129 -18 -209 -213q-64 -157 -64 -313zM330 1397q0 -29 22.5 -48.5t50.5 -19.5q25 0 43 14q31 27 107 80 q43 31 94 93q-8 4 -8 12q0 4 3 12t3 14q0 12 -24.5 36t-38.5 24q4 0 -12.5 -9.5t-120.5 -76.5q-119 -78 -119 -131z" />
<glyph unicode="&#xd4;" horiz-adv-x="876" d="M0 467q0 303 121 494q25 41 91.5 101t90.5 97q-2 4 -10 16.5t-8 16.5q0 6 3 23.5t3 25.5q0 35 4 43q14 27 55 27q25 0 43 -11q10 -10 33 -26q203 -156 215 -166q117 -104 160 -215q12 -33 12 -39q0 -41 -12 -156q-47 -401 -269 -569q-72 -55 -174 -55q-115 0 -206 51 q-102 57 -129 160q-23 82 -23 182zM176 1409q0 25 19 41q43 37 65 59q12 12 105 99q78 -8 101 -21.5t64 -75.5l41 -61l31 -28q16 -15 16 -31q0 -25 -27.5 -48.5t-51.5 -23.5q-43 0 -64 45l-24 53l-39 41q-31 -12 -88 -57q-43 -35 -86 -35q-62 0 -62 43zM178 518 q0 -104 25 -192q23 -74 92 -99q49 -18 76 -18q35 0 63 27q94 84 150 223q51 129 51 264q0 113 -53 182l-131 139q-129 -18 -209 -213q-64 -157 -64 -313z" />
<glyph unicode="&#xd5;" horiz-adv-x="876" d="M0 467q0 303 121 494q25 41 91.5 101t90.5 97q-2 4 -10 16.5t-8 16.5q0 6 3 23.5t3 25.5q0 35 4 43q14 27 55 27q25 0 43 -11q10 -10 33 -26q203 -156 215 -166q117 -104 160 -215q12 -33 12 -39q0 -41 -12 -156q-47 -401 -269 -569q-72 -55 -174 -55q-115 0 -206 51 q-102 57 -129 160q-23 82 -23 182zM172 1425q0 68 59 131q37 41 78 41h8q6 0 17.5 3.5t19.5 3.5q20 0 57.5 -20.5t51.5 -39.5q18 -27 41 -53q2 -2 16 -2q18 0 21 16v29q2 16 12 27.5t43 11.5q66 0 66 -40t-19 -91q-16 -45 -53 -64l6 -4q-78 -20 -88 -20q-76 0 -115 67 q-12 25 -18 31t-27 18l-8 5q-4 0 -16 -5q-18 -4 -27.5 -41.5t-46.5 -50.5q-10 -2 -19 -4q-20 0 -39.5 16.5t-19.5 34.5zM178 518q0 -104 25 -192q23 -74 92 -99q49 -18 76 -18q35 0 63 27q94 84 150 223q51 129 51 264q0 113 -53 182l-131 139q-129 -18 -209 -213 q-64 -157 -64 -313z" />
<glyph unicode="&#xd6;" horiz-adv-x="876" d="M0 467q0 303 121 494q25 41 91.5 101t90.5 97q-2 4 -10 16.5t-8 16.5q0 6 3 23.5t3 25.5q0 35 4 43q14 27 55 27q25 0 43 -11q10 -10 33 -26q203 -156 215 -166q117 -104 160 -215q12 -33 12 -39q0 -41 -12 -156q-47 -401 -269 -569q-72 -55 -174 -55q-115 0 -206 51 q-102 57 -129 160q-23 82 -23 182zM156 1487q0 35 21.5 69.5t51.5 34.5q43 0 93 -57q16 -16 33.5 -31.5t17.5 -40t-27 -52.5t-53 -34q-10 -2 -31 -2q-45 0 -75.5 33t-30.5 80zM178 518q0 -104 25 -192q23 -74 92 -99q49 -18 76 -18q35 0 63 27q94 84 150 223q51 129 51 264 q0 113 -53 182l-131 139q-129 -18 -209 -213q-64 -157 -64 -313zM479 1436q0 74 17.5 103.5t62.5 29.5h27q37 0 55 -23q37 -43 37 -94q0 -43 -26.5 -73.5t-69.5 -30.5q-27 0 -52 20q-51 37 -51 68z" />
<glyph unicode="&#xd9;" horiz-adv-x="931" d="M0 592q0 51 4 115q12 215 21 280q25 172 84 262q18 29 65 29q55 0 96 -33l-53 -317q-27 -186 -27 -324q0 -147 41 -289q57 -201 168 -200q39 0 81 29.5t59.5 65.5t44.5 114q98 285 98 809v167q0 14 27 15q23 0 67.5 -11.5t61.5 -21.5q23 -16 26 -104q2 -74 2 -131 q0 -596 -198 -963q-45 -84 -265 -84q-221 0 -292 121q-111 184 -111 471zM188 1516q6 4 7 12q0 4 -2.5 12t-2.5 14q0 12 24 36t38 24q-2 0 13.5 -9.5l119.5 -76.5q121 -78 121 -131q0 -29 -23.5 -48.5t-52.5 -19.5q-25 0 -43 14q-29 27 -106 80q-44 32 -93 93z" />
<glyph unicode="&#xda;" horiz-adv-x="931" d="M0 592q0 51 4 115q12 215 21 280q25 172 84 262q18 29 65 29q55 0 96 -33l-53 -317q-27 -186 -27 -324q0 -147 41 -289q57 -201 168 -200q39 0 81 29.5t59.5 65.5t44.5 114q98 285 98 809v167q0 14 27 15q23 0 67.5 -11.5t61.5 -21.5q23 -16 26 -104q2 -74 2 -131 q0 -596 -198 -963q-45 -84 -265 -84q-221 0 -292 121q-111 184 -111 471zM348 1397q0 -29 22.5 -48.5t51.5 -19.5q25 0 43 14q31 27 106 80q43 31 95 93q-8 4 -9 12q0 4 3.5 12t3.5 14q0 12 -25 36t-39 24q4 0 -12.5 -9.5t-120.5 -76.5q-119 -78 -119 -131z" />
<glyph unicode="&#xdb;" horiz-adv-x="931" d="M0 592q0 51 4 115q12 215 21 280q25 172 84 262q18 29 65 29q55 0 96 -33l-53 -317q-27 -186 -27 -324q0 -147 41 -289q57 -201 168 -200q39 0 81 29.5t59.5 65.5t44.5 114q98 285 98 809v167q0 14 27 15q23 0 67.5 -11.5t61.5 -21.5q23 -16 26 -104q2 -74 2 -131 q0 -596 -198 -963q-45 -84 -265 -84q-221 0 -292 121q-111 184 -111 471zM195 1421q0 25 18 41q43 37 66 60q12 12 104 98q78 -8 101.5 -21.5t64.5 -74.5l41 -62l31 -27q16 -15 16 -32q0 -25 -27.5 -48.5t-52.5 -23.5q-43 0 -63 45l-25 54l-39 40q-31 -12 -88 -57 q-43 -35 -86 -35q-61 0 -61 43z" />
<glyph unicode="&#xdc;" horiz-adv-x="931" d="M0 592q0 51 4 115q12 215 21 280q25 172 84 262q18 29 65 29q55 0 96 -33l-53 -317q-27 -186 -27 -324q0 -147 41 -289q57 -201 168 -200q39 0 81 29.5t59.5 65.5t44.5 114q98 285 98 809v167q0 14 27 15q23 0 67.5 -11.5t61.5 -21.5q23 -16 26 -104q2 -74 2 -131 q0 -596 -198 -963q-45 -84 -265 -84q-221 0 -292 121q-111 184 -111 471zM215 1516q0 35 21.5 69.5t52.5 34.5q43 0 92 -57q16 -16 33.5 -31.5t17.5 -40.5t-26.5 -52.5t-53.5 -33.5q-10 -2 -30 -2q-45 0 -76 33t-31 80zM539 1464q0 74 17 103.5t62 29.5h27q37 0 55 -22 q37 -43 37 -94q0 -43 -26.5 -74t-69.5 -31q-27 0 -51 21q-51 36 -51 67z" />
<glyph unicode="&#xdd;" horiz-adv-x="784" d="M0 1200q0 37 28.5 60.5t65.5 23.5q49 0 129 -72l113 -108q39 -37 84 -70q47 47 67 131q18 74 33 101q31 45 88 45q63 0 67.5 -19.5t4.5 -44.5q0 -70 -41 -170q-61 -154 -66 -168q20 -35 113 -100q76 -53 74 -96l-2 -8q0 -20 -25 -39q-66 -49 -90 -50q-16 0 -68 35 q-23 18 -57 29q-31 -70 -70.5 -251t-39.5 -253q0 -12 6 -34.5t6 -35.5q0 -6 -12 -36q-10 -23 -19.5 -35t-30.5 -17q-86 -18 -96 -18q-27 0 -31 25.5t-4 70.5q0 94 37 250q43 182 51 248q4 33 33 100q29 61 29 99q0 70 -98 151l-181 135q-98 74 -98 121zM530 1501 q0 -29 22.5 -48t51.5 -19q25 0 43 14q31 27 107 80q43 31 94 92q-8 4 -8 12q0 4 3 12.5t3 14.5q0 12 -24.5 35.5t-39.5 23.5q4 0 -12 -9t-121 -77q-119 -78 -119 -131z" />
<glyph unicode="&#xe0;" horiz-adv-x="747" d="M0 268q0 104 43 172l45 66q29 37 59 49q39 18 60 18q23 0 69 -4t68 -4q135 0 135 117q0 33 -22 141q-6 41 -66 90q-12 10 -24.5 10.5t-24.5 -10.5q-55 -39 -63 -69l-17 -92q-6 -20 -33.5 -35t-52.5 -15q-61 0 -61 54q0 113 80 239q27 41 86 62q82 27 106 26q20 0 41 -8 l70 -33q45 -23 57 -41q74 -121 74 -231q0 -45 -19 -176q-18 -90 -55 -303q-1 -8 -1 -15q0 -37 26 -69l30 -23q16 -12 17 -37q0 -37 -19 -55q-6 -6 -47 -31q-106 -61 -233 -61q-96 0 -187 31q-70 25 -108 96q-33 63 -33 141zM123 1343q6 4 6 13q0 4 -2 12t-2 14q0 12 23.5 36 t37.5 24q-2 0 13.5 -9.5l119.5 -76.5q121 -78 121 -131q0 -29 -23.5 -48.5t-51.5 -19.5q-25 0 -43 14q-29 27 -107 80q-43 31 -92 92zM158 281q0 -18 6 -50q20 -98 108 -98q104 0 131 57q0 8 -7 22.5t-7 25.5q0 25 13.5 73.5t13.5 73.5q0 61 -62 61h-24h-25 q-68 0 -107.5 -48.5t-39.5 -116.5z" />
<glyph unicode="&#xe1;" horiz-adv-x="747" d="M0 268q0 104 43 172l45 66q29 37 59 49q39 18 60 18q23 0 69 -4t68 -4q135 0 135 117q0 33 -22 141q-6 41 -66 90q-12 10 -24.5 10.5t-24.5 -10.5q-55 -39 -63 -69l-17 -92q-6 -20 -33.5 -35t-52.5 -15q-61 0 -61 54q0 113 80 239q27 41 86 62q82 27 106 26q20 0 41 -8 l70 -33q45 -23 57 -41q74 -121 74 -231q0 -45 -19 -176q-18 -90 -55 -303q-1 -8 -1 -15q0 -37 26 -69l30 -23q16 -12 17 -37q0 -37 -19 -55q-6 -6 -47 -31q-106 -61 -233 -61q-96 0 -187 31q-70 25 -108 96q-33 63 -33 141zM158 281q0 -18 6 -50q20 -98 108 -98 q104 0 131 57q0 8 -7 22.5t-7 25.5q0 25 13.5 73.5t13.5 73.5q0 61 -62 61h-24h-25q-68 0 -107.5 -48.5t-39.5 -116.5zM272 1255q0 -29 22.5 -48t51.5 -19q25 0 43 14q31 27 107 80q43 31 94 92q-8 4 -8 12q0 4 3 12.5t3 14.5q0 12 -24.5 36t-39.5 24q4 0 -12 -9.5 t-121 -77.5q-119 -78 -119 -131z" />
<glyph unicode="&#xe2;" horiz-adv-x="747" d="M0 268q0 104 43 172l45 66q29 37 59 49q39 18 60 18q23 0 69 -4t68 -4q135 0 135 117q0 33 -22 141q-6 41 -66 90q-12 10 -24.5 10.5t-24.5 -10.5q-55 -39 -63 -69l-17 -92q-6 -20 -33.5 -35t-52.5 -15q-61 0 -61 54q0 113 80 239q27 41 86 62q82 27 106 26q20 0 41 -8 l70 -33q45 -23 57 -41q74 -121 74 -231q0 -45 -19 -176q-18 -90 -55 -303q-1 -8 -1 -15q0 -37 26 -69l30 -23q16 -12 17 -37q0 -37 -19 -55q-6 -6 -47 -31q-106 -61 -233 -61q-96 0 -187 31q-70 25 -108 96q-33 63 -33 141zM152 1268q0 25 18 41q43 37 66 59q12 12 104 98 q78 -8 101.5 -21t64.5 -75l41 -61l31 -28q16 -15 16 -32q0 -25 -27.5 -48t-52.5 -23q-43 0 -63 45l-25 53l-39 41q-31 -12 -88 -57q-43 -35 -86 -35q-61 0 -61 43zM158 281q0 -18 6 -50q20 -98 108 -98q104 0 131 57q0 8 -7 22.5t-7 25.5q0 25 13.5 73.5t13.5 73.5 q0 61 -62 61h-24h-25q-68 0 -107.5 -48.5t-39.5 -116.5z" />
<glyph unicode="&#xe3;" horiz-adv-x="747" d="M0 268q0 104 43 172l45 66q29 37 59 49q39 18 60 18q23 0 69 -4t68 -4q135 0 135 117q0 33 -22 141q-6 41 -66 90q-12 10 -24.5 10.5t-24.5 -10.5q-55 -39 -63 -69l-17 -92q-6 -20 -33.5 -35t-52.5 -15q-61 0 -61 54q0 113 80 239q27 41 86 62q82 27 106 26q20 0 41 -8 l70 -33q45 -23 57 -41q74 -121 74 -231q0 -45 -19 -176q-18 -90 -55 -303q-1 -8 -1 -15q0 -37 26 -69l30 -23q16 -12 17 -37q0 -37 -19 -55q-6 -6 -47 -31q-106 -61 -233 -61q-96 0 -187 31q-70 25 -108 96q-33 63 -33 141zM131 1241q0 68 59 131q37 41 78 41h8q6 0 17.5 3 t19.5 3q20 0 57.5 -20.5t51.5 -38.5q18 -27 41 -53q2 -2 16 -2q18 0 21 16v29q2 16 12 27.5t43 11.5q66 0 66 -40t-19 -92q-16 -45 -53 -63l6 -4q-78 -20 -88 -21q-76 0 -115 68q-12 25 -18 31t-27 18l-8 4q-4 0 -16 -4q-18 -4 -27.5 -42t-46.5 -50q-10 -2 -19 -4 q-20 0 -39.5 16.5t-19.5 34.5zM158 281q0 -18 6 -50q20 -98 108 -98q104 0 131 57q0 8 -7 22.5t-7 25.5q0 25 13.5 73.5t13.5 73.5q0 61 -62 61h-24h-25q-68 0 -107.5 -48.5t-39.5 -116.5z" />
<glyph unicode="&#xe4;" horiz-adv-x="747" d="M0 268q0 104 43 172l45 66q29 37 59 49q39 18 60 18q23 0 69 -4t68 -4q135 0 135 117q0 33 -22 141q-6 41 -66 90q-12 10 -24.5 10.5t-24.5 -10.5q-55 -39 -63 -69l-17 -92q-6 -20 -33.5 -35t-52.5 -15q-61 0 -61 54q0 113 80 239q27 41 86 62q82 27 106 26q20 0 41 -8 l70 -33q45 -23 57 -41q74 -121 74 -231q0 -45 -19 -176q-18 -90 -55 -303q-1 -8 -1 -15q0 -37 26 -69l30 -23q16 -12 17 -37q0 -37 -19 -55q-6 -6 -47 -31q-106 -61 -233 -61q-96 0 -187 31q-70 25 -108 96q-33 63 -33 141zM115 1303q0 35 21.5 69.5t51.5 34.5q43 0 93 -57 q16 -16 33.5 -31.5t17.5 -40.5t-26.5 -52.5t-53.5 -33.5q-10 -2 -31 -2q-45 0 -75.5 33t-30.5 80zM158 281q0 -18 6 -50q20 -98 108 -98q104 0 131 57q0 8 -7 22.5t-7 25.5q0 25 13.5 73.5t13.5 73.5q0 61 -62 61h-24h-25q-68 0 -107.5 -48.5t-39.5 -116.5zM438 1251 q0 74 17.5 103.5t62.5 29.5h27q37 0 55 -22q37 -43 37 -94q0 -43 -26.5 -74t-69.5 -31q-27 0 -52 21q-51 36 -51 67z" />
<glyph unicode="&#xe5;" horiz-adv-x="747" d="M0 268q0 104 43 172l45 66q29 37 59 49q39 18 60 18q23 0 69 -4t68 -4q135 0 135 117q0 33 -22 141q-6 41 -66 90q-12 10 -24.5 10.5t-24.5 -10.5q-55 -39 -63 -69l-17 -92q-6 -20 -33.5 -35t-52.5 -15q-61 0 -61 54q0 113 80 239q27 41 86 62q82 27 106 26q20 0 41 -8 l70 -33q45 -23 57 -41q74 -121 74 -231q0 -45 -19 -176q-18 -90 -55 -303q-1 -8 -1 -15q0 -37 26 -69l30 -23q16 -12 17 -37q0 -37 -19 -55q-6 -6 -47 -31q-106 -61 -233 -61q-96 0 -187 31q-70 25 -108 96q-33 63 -33 141zM158 281q0 -18 6 -50q20 -98 108 -98 q104 0 131 57q0 8 -7 22.5t-7 25.5q0 25 13.5 73.5t13.5 73.5q0 61 -62 61h-24h-25q-68 0 -107.5 -48.5t-39.5 -116.5z" />
<glyph unicode="&#xe7;" horiz-adv-x="651" d="M8 621q0 209 117 303q59 47 121 47q86 0 270 -107q43 -27 43 -69q0 -70 -84 -70q-27 0 -91.5 37t-113.5 37q-14 0 -24 -2q-35 -6 -47 -39q-4 -8 -13 -62q-16 -86 -16 -143q0 -174 117 -248q25 -16 55 -16q39 0 195 57q16 6 30 6q25 0 47.5 -20.5t22.5 -46.5 q0 -63 -58.5 -92t-105.5 -43q16 -49 16 -105q0 -63 -21.5 -130t-123.5 -112q-39 -16 -76 -16q-90 0 -145 55q-47 49 -47 119q0 90 55 90q29 0 57 -37l43 -61q20 -12 37 -12q2 0 56 24q12 39 12 80q0 57 -29 88q-156 20 -233 176q-66 130 -66 312z" />
<glyph unicode="&#xe8;" horiz-adv-x="811" d="M88 442q0 41 21 185q23 162 90 276q88 152 223 152q51 0 92 -15q31 -8 76 -32q78 -84 108 -185v-15q0 -40 9 -89q4 -6 35.5 -18.5t35.5 -23.5t4 -24q0 -61 -49 -80q-33 -10 -143 -10q-47 0 -137.5 11.5t-137.5 11.5q-23 0 -43 -2q-25 -31 -24 -82q0 4 16 -131 q12 -100 66 -135q109 -74 149 -74q51 0 84 32.5t33 84.5q0 10 -2 28.5t-2 28.5q0 25 57 49q10 4 29 4q82 0 82 -115q0 -135 -90 -194q-112 -76 -183 -76h-10q-68 4 -194 68q-98 49 -150 161q-45 94 -45 209zM172 1337q6 4 6 13q0 4 -2 12t-2 14q0 12 23.5 36t38.5 24 q-2 0 13 -9.5l120 -76.5q121 -78 120 -131q0 -29 -23.5 -48.5t-51.5 -19.5q-25 0 -43 14q-29 27 -107 80q-43 31 -92 92zM326 762q0 -23 20 -23q29 0 85 -10t85 -10q6 0 21.5 9t15.5 13q-18 100 -33 123q-18 16 -39 33q-8 8 -61 8q-29 0 -61.5 -56t-32.5 -87z" />
<glyph unicode="&#xe9;" horiz-adv-x="811" d="M88 442q0 41 21 185q23 162 90 276q88 152 223 152q51 0 92 -15q31 -8 76 -32q78 -84 108 -185v-15q0 -40 9 -89q4 -6 35.5 -18.5t35.5 -23.5t4 -24q0 -61 -49 -80q-33 -10 -143 -10q-47 0 -137.5 11.5t-137.5 11.5q-23 0 -43 -2q-25 -31 -24 -82q0 4 16 -131 q12 -100 66 -135q109 -74 149 -74q51 0 84 32.5t33 84.5q0 10 -2 28.5t-2 28.5q0 25 57 49q10 4 29 4q82 0 82 -115q0 -135 -90 -194q-112 -76 -183 -76h-10q-68 4 -194 68q-98 49 -150 161q-45 94 -45 209zM326 762q0 -23 20 -23q29 0 85 -10t85 -10q6 0 21.5 9t15.5 13 q-18 100 -33 123q-18 16 -39 33q-8 8 -61 8q-29 0 -61.5 -56t-32.5 -87zM385 1237q0 -29 22.5 -48.5t51.5 -19.5q25 0 43 15q31 27 106 80q43 31 94 92q-8 4 -8 12q0 4 3 12.5t3 14.5q0 12 -24.5 35.5t-38.5 23.5q4 0 -12.5 -9t-120.5 -77q-119 -78 -119 -131z" />
<glyph unicode="&#xea;" horiz-adv-x="811" d="M88 442q0 41 21 185q23 162 90 276q88 152 223 152q51 0 92 -15q31 -8 76 -32q78 -84 108 -185v-15q0 -40 9 -89q4 -6 35.5 -18.5t35.5 -23.5t4 -24q0 -61 -49 -80q-33 -10 -143 -10q-47 0 -137.5 11.5t-137.5 11.5q-23 0 -43 -2q-25 -31 -24 -82q0 4 16 -131 q12 -100 66 -135q109 -74 149 -74q51 0 84 32.5t33 84.5q0 10 -2 28.5t-2 28.5q0 25 57 49q10 4 29 4q82 0 82 -115q0 -135 -90 -194q-112 -76 -183 -76h-10q-68 4 -194 68q-98 49 -150 161q-45 94 -45 209zM219 1262q0 25 19 41q43 37 65 59q12 12 105 98q78 -8 101 -21.5 t64 -74.5l41 -61l31 -28q16 -15 17 -32q0 -25 -28 -48.5t-52 -23.5q-43 0 -64 46l-24 53l-39 41q-31 -12 -88 -58q-43 -35 -86 -34q-62 0 -62 43zM326 762q0 -23 20 -23q29 0 85 -10t85 -10q6 0 21.5 9t15.5 13q-18 100 -33 123q-18 16 -39 33q-8 8 -61 8q-29 0 -61.5 -56 t-32.5 -87z" />
<glyph unicode="&#xeb;" horiz-adv-x="811" d="M88 442q0 41 21 185q23 162 90 276q88 152 223 152q51 0 92 -15q31 -8 76 -32q78 -84 108 -185v-15q0 -40 9 -89q4 -6 35.5 -18.5t35.5 -23.5t4 -24q0 -61 -49 -80q-33 -10 -143 -10q-47 0 -137.5 11.5t-137.5 11.5q-23 0 -43 -2q-25 -31 -24 -82q0 4 16 -131 q12 -100 66 -135q109 -74 149 -74q51 0 84 32.5t33 84.5q0 10 -2 28.5t-2 28.5q0 25 57 49q10 4 29 4q82 0 82 -115q0 -135 -90 -194q-112 -76 -183 -76h-10q-68 4 -194 68q-98 49 -150 161q-45 94 -45 209zM209 1303q0 35 21.5 69.5t52.5 34.5q43 0 92 -57 q16 -16 33.5 -31.5t17.5 -40.5t-26.5 -52.5t-53.5 -33.5q-10 -2 -31 -2q-45 0 -75.5 33t-30.5 80zM326 762q0 -23 20 -23q29 0 85 -10t85 -10q6 0 21.5 9t15.5 13q-18 100 -33 123q-18 16 -39 33q-8 8 -61 8q-29 0 -61.5 -56t-32.5 -87zM532 1251q0 74 17.5 103.5t62.5 29.5 h27q37 0 55 -22q37 -43 37 -94q0 -43 -26.5 -74t-69.5 -31q-27 0 -51 21q-52 36 -52 67z" />
<glyph unicode="&#xec;" horiz-adv-x="479" d="M0 1092q6 4 6 12q0 4 -2 12t-2 14q0 12 23.5 36t37.5 24q-2 0 13.5 -9.5l120.5 -76.5q121 -78 120 -131q0 -29 -23.5 -48.5t-51.5 -19.5q-25 0 -43 15q-29 27 -107 79q-43 32 -92 93zM166 483q0 41 2 90l6 117q14 68 72 84q8 2 16 7t21 5q74 0 73 -59q0 -20 -18 -59 q-6 -47 -6 -101q0 -76 13 -223t13 -223q0 -45 -2 -55q-8 -66 -71 -66q-41 0 -68 17.5t-29 66.5q-2 27 -14 199q-8 120 -8 200z" />
<glyph unicode="&#xed;" horiz-adv-x="479" d="M166 483q0 41 2 90l6 117q14 68 72 84q8 2 16 7t21 5q74 0 73 -59q0 -20 -18 -59q-6 -47 -6 -101q0 -76 13 -223t13 -223q0 -45 -2 -55q-8 -66 -71 -66q-41 0 -68 17.5t-29 66.5q-2 27 -14 199q-8 120 -8 200zM166 965q0 -29 22.5 -48.5t51.5 -19.5q25 0 43 14 q31 27 106 80q43 31 94 92q-8 4 -8 13q0 4 3 12t3 14q0 12 -24.5 36t-38.5 24q4 0 -12.5 -9.5t-120.5 -76.5q-119 -78 -119 -131z" />
<glyph unicode="&#xee;" horiz-adv-x="479" d="M23 1026q0 25 18 41q43 37 65 59q12 12 105 99q78 -8 101.5 -21.5t64.5 -75.5l41 -61l31 -28q16 -15 16 -31q0 -25 -27.5 -48.5t-52.5 -23.5q-43 0 -63 45l-25 53l-39 41q-31 -12 -88 -57q-43 -35 -86 -35q-61 0 -61 43zM166 483q0 41 2 90l6 117q14 68 72 84q8 2 16 7 t21 5q74 0 73 -59q0 -20 -18 -59q-6 -47 -6 -101q0 -76 13 -223t13 -223q0 -45 -2 -55q-8 -66 -71 -66q-41 0 -68 17.5t-29 66.5q-2 27 -14 199q-8 120 -8 200z" />
<glyph unicode="&#xef;" horiz-adv-x="479" d="M-27 1036q0 35 21.5 70t52.5 35q43 0 92 -58q16 -16 33.5 -31.5t17.5 -40t-26.5 -52t-52.5 -33.5q-10 -2 -31 -2q-45 0 -76 32.5t-31 79.5zM166 483q0 41 2 90l6 117q14 68 72 84q8 2 16 7t21 5q74 0 73 -59q0 -20 -18 -59q-6 -47 -6 -101q0 -76 13 -223t13 -223 q0 -45 -2 -55q-8 -66 -71 -66q-41 0 -68 17.5t-29 66.5q-2 27 -14 199q-8 120 -8 200zM297 985q0 74 17.5 103.5t62.5 29.5h26q37 0 56 -22q37 -43 37 -95q0 -43 -27 -73.5t-70 -30.5q-27 0 -51 21q-51 36 -51 67z" />
<glyph unicode="&#xf1;" horiz-adv-x="684" d="M37 803q0 43 4 67q6 43 6 84q0 10 -2 31t-2 31q0 80 100 80q78 0 78 -58q0 -12 -5 -36.5t-5 -36.5q25 2 88 12q53 8 86 8q76 0 113 -49q133 -170 133 -375q0 -45 -5 -134t-5 -134q0 -57 2 -103q2 -14 9 -51t7 -57q0 -82 -90 -82q-68 0 -82 72q-4 18 -4 123q0 47 5 142 t5 142q0 141 -65 303q-29 70 -64 70q-37 0 -78 -14q-51 -18 -55 -47q-12 -84 -12 -201q0 -57 7 -172t7 -172q0 -123 -8 -166t-74 -43q-70 0 -74 69q0 -2 0 314q0 66 -8 160q-12 129 -12 223zM109 1235q0 68 59 131q37 41 78 41h8q6 0 17.5 3t19.5 3q20 0 57 -20.5t51 -38.5 q18 -27 41 -54q2 -2 17 -2q18 0 20 17v28q2 16 12.5 27.5t42.5 11.5q66 0 66.5 -39.5t-18.5 -91.5q-16 -45 -54 -63l6 -4q-78 -20 -88 -21q-76 0 -114 68q-12 25 -18.5 31t-26.5 18l-9 4q-4 0 -16 -4q-18 -4 -27.5 -42t-46.5 -50q-10 -2 -18 -4q-20 0 -39.5 16.5t-19.5 34.5 z" />
<glyph unicode="&#xf2;" horiz-adv-x="761" d="M6 655q0 244 139 310q106 49 252 49q182 0 226 -84q78 -150 77 -295q0 -195 -143 -273q-68 -39 -174 -38q-160 0 -293 122q-84 76 -84 209zM88 1311q6 4 6 12q0 4 -2 12t-2 15q0 12 23.5 35.5t38.5 23.5q-2 0 13 -9t120 -77q121 -78 121 -131q0 -29 -24 -48.5t-52 -19.5 q-25 0 -43 15q-29 27 -107 80q-43 31 -92 92zM176 686q0 -94 67.5 -162.5t162.5 -68.5q125 0 124 153q0 70 -26 160q-35 113 -119 113q-14 0 -42 2t-42 2q-63 0 -86 -39q-39 -78 -39 -160z" />
<glyph unicode="&#xf3;" horiz-adv-x="761" d="M6 655q0 244 139 310q106 49 252 49q182 0 226 -84q78 -150 77 -295q0 -195 -143 -273q-68 -39 -174 -38q-160 0 -293 122q-84 76 -84 209zM176 686q0 -94 67.5 -162.5t162.5 -68.5q125 0 124 153q0 70 -26 160q-35 113 -119 113q-14 0 -42 2t-42 2q-63 0 -86 -39 q-39 -78 -39 -160zM301 1221q0 -29 22.5 -48.5t51.5 -19.5q25 0 43 14q31 27 106 80q43 31 94 92q-8 4 -8 13q0 4 3 12t3 14q0 12 -24.5 36t-38.5 24q4 0 -12.5 -9.5t-120.5 -76.5q-119 -78 -119 -131z" />
<glyph unicode="&#xf4;" horiz-adv-x="761" d="M6 655q0 244 139 310q106 49 252 49q182 0 226 -84q78 -150 77 -295q0 -195 -143 -273q-68 -39 -174 -38q-160 0 -293 122q-84 76 -84 209zM158 1208q0 25 18 41q43 37 66 60q12 12 104 98q78 -8 101.5 -21.5t64.5 -74.5l41 -62l31 -27q16 -15 16 -32q0 -25 -27.5 -48.5 t-52.5 -23.5q-43 0 -63 45l-25 54l-39 40q-31 -12 -88 -57q-43 -35 -86 -35q-61 0 -61 43zM176 686q0 -94 67.5 -162.5t162.5 -68.5q125 0 124 153q0 70 -26 160q-35 113 -119 113q-14 0 -42 2t-42 2q-63 0 -86 -39q-39 -78 -39 -160z" />
<glyph unicode="&#xf5;" horiz-adv-x="761" d="M6 655q0 244 139 310q106 49 252 49q182 0 226 -84q78 -150 77 -295q0 -195 -143 -273q-68 -39 -174 -38q-160 0 -293 122q-84 76 -84 209zM113 1198q0 68 59 131q37 41 78 41h8q6 0 17.5 3t19.5 3q20 0 57 -20.5t51 -38.5q18 -27 41 -53q2 -2 17 -2q18 0 20 16v29 q2 16 12.5 27.5t43.5 11.5q66 0 66 -40t-19 -92q-16 -45 -54 -63l7 -4q-78 -20 -88 -21q-76 0 -115 68q-12 25 -18.5 31t-26.5 18l-8 4q-4 0 -17 -4q-18 -4 -27.5 -42t-46.5 -50q-10 -2 -18 -4q-20 0 -39.5 16.5t-19.5 34.5zM176 686q0 -94 67.5 -162.5t162.5 -68.5 q125 0 124 153q0 70 -26 160q-35 113 -119 113q-14 0 -42 2t-42 2q-63 0 -86 -39q-39 -78 -39 -160z" />
<glyph unicode="&#xf6;" horiz-adv-x="761" d="M6 655q0 244 139 310q106 49 252 49q182 0 226 -84q78 -150 77 -295q0 -195 -143 -273q-68 -39 -174 -38q-160 0 -293 122q-84 76 -84 209zM121 1262q0 35 21.5 69.5t52.5 34.5q43 0 92 -57q16 -16 33.5 -31.5t17.5 -40.5t-26.5 -52.5t-53.5 -33.5q-10 -2 -31 -2 q-45 0 -75.5 33t-30.5 80zM176 686q0 -94 67.5 -162.5t162.5 -68.5q125 0 124 153q0 70 -26 160q-35 113 -119 113q-14 0 -42 2t-42 2q-63 0 -86 -39q-39 -78 -39 -160zM444 1210q0 74 17.5 103.5t62.5 29.5h27q37 0 55 -22q37 -43 37 -94q0 -43 -26.5 -74t-69.5 -31 q-27 0 -51 21q-52 36 -52 67z" />
<glyph unicode="&#xf9;" horiz-adv-x="755" d="M53 465q0 33 3 101.5t3 103.5q0 29 -2 85t-2 85q0 90 8 123q18 72 82 71q70 0 70 -67q0 -16 -4 -47t-4 -48q0 -45 -4 -137t-4 -137q0 -188 45 -307q31 -76 127 -76q18 0 35 6q70 18 104 168q23 106 22 221q0 170 -69 353q-4 16 -4 26q0 33 27.5 50.5t60.5 17.5 q72 0 102 -96q0 -2 27 -154q10 -55 10 -121q0 -29 -2 -86t-2 -84v-22q2 -14 2 -21q0 -4 -10 -10t-10 -10t2 -15v-14q0 -53 -27 -125q-35 -88 -117 -147.5t-174 -59.5q-70 0 -207 64q-35 16 -41 20q-16 12 -22 39q-25 94 -25 250zM82 1331q6 4 6 12q0 4 -2 12.5t-2 14.5 q0 12 23.5 36t37.5 24q-2 0 13.5 -9.5l120.5 -77.5q121 -78 120 -131q0 -29 -23.5 -48t-51.5 -19q-25 0 -43 14q-29 27 -107 80q-43 31 -92 92z" />
<glyph unicode="&#xfa;" horiz-adv-x="755" d="M53 465q0 33 3 101.5t3 103.5q0 29 -2 85t-2 85q0 90 8 123q18 72 82 71q70 0 70 -67q0 -16 -4 -47t-4 -48q0 -45 -4 -137t-4 -137q0 -188 45 -307q31 -76 127 -76q18 0 35 6q70 18 104 168q23 106 22 221q0 170 -69 353q-4 16 -4 26q0 33 27.5 50.5t60.5 17.5 q72 0 102 -96q0 -2 27 -154q10 -55 10 -121q0 -29 -2 -86t-2 -84v-22q2 -14 2 -21q0 -4 -10 -10t-10 -10t2 -15v-14q0 -53 -27 -125q-35 -88 -117 -147.5t-174 -59.5q-70 0 -207 64q-35 16 -41 20q-16 12 -22 39q-25 94 -25 250zM283 1237q0 -29 22.5 -48.5t50.5 -19.5 q25 0 43 15q31 27 107 80q43 31 94 92q-8 4 -8 12q0 4 3 12.5t3 14.5q0 12 -24.5 35.5t-38.5 23.5q4 0 -12.5 -9t-121.5 -77q-118 -78 -118 -131z" />
<glyph unicode="&#xfb;" horiz-adv-x="755" d="M53 465q0 33 3 101.5t3 103.5q0 29 -2 85t-2 85q0 90 8 123q18 72 82 71q70 0 70 -67q0 -16 -4 -47t-4 -48q0 -45 -4 -137t-4 -137q0 -188 45 -307q31 -76 127 -76q18 0 35 6q70 18 104 168q23 106 22 221q0 170 -69 353q-4 16 -4 26q0 33 27.5 50.5t60.5 17.5 q72 0 102 -96q0 -2 27 -154q10 -55 10 -121q0 -29 -2 -86t-2 -84v-22q2 -14 2 -21q0 -4 -10 -10t-10 -10t2 -15v-14q0 -53 -27 -125q-35 -88 -117 -147.5t-174 -59.5q-70 0 -207 64q-35 16 -41 20q-16 12 -22 39q-25 94 -25 250zM139 1262q0 25 19 41q43 37 65 59 q12 12 105 98q78 -8 101.5 -21.5t64.5 -74.5l41 -61l30 -28q16 -15 17 -32q0 -25 -28 -48.5t-52 -23.5q-43 0 -64 46l-24 53l-39 41q-31 -12 -88 -58q-43 -35 -86 -34q-62 0 -62 43z" />
<glyph unicode="&#xfc;" horiz-adv-x="755" d="M53 465q0 33 3 101.5t3 103.5q0 29 -2 85t-2 85q0 90 8 123q18 72 82 71q70 0 70 -67q0 -16 -4 -47t-4 -48q0 -45 -4 -137t-4 -137q0 -188 45 -307q31 -76 127 -76q18 0 35 6q70 18 104 168q23 106 22 221q0 170 -69 353q-4 16 -4 26q0 33 27.5 50.5t60.5 17.5 q72 0 102 -96q0 -2 27 -154q10 -55 10 -121q0 -29 -2 -86t-2 -84v-22q2 -14 2 -21q0 -4 -10 -10t-10 -10t2 -15v-14q0 -53 -27 -125q-35 -88 -117 -147.5t-174 -59.5q-70 0 -207 64q-35 16 -41 20q-16 12 -22 39q-25 94 -25 250zM90 1290q0 35 21.5 70t52.5 35q43 0 92 -58 q16 -16 33.5 -31.5t17.5 -40t-26.5 -52t-53.5 -33.5q-10 -2 -30 -2q-45 0 -76 32.5t-31 79.5zM414 1239q0 74 17.5 103.5t62.5 29.5h26q37 0 55 -22q37 -43 37 -95q0 -43 -26.5 -73.5t-69.5 -30.5q-27 0 -51 20q-51 37 -51 68z" />
<glyph unicode="&#xfd;" horiz-adv-x="618" d="M-6 -127q0 57 45 70q55 14 43 14q20 0 43 -43q29 -53 37 -61q37 -33 63 -33q68 0 115 94q37 80 37 154q0 88 -10 114q-2 10 -33 17q-39 8 -43 10q-10 6 -35 15t-70 36q-121 145 -147 496q-12 174 -12 309q0 61 73 61q47 0 86 -22q-4 -180 -4 -213q0 -336 115 -502 q6 -10 70 -27q0 2 14 353q8 213 45 350q12 49 80 49q33 0 67 -10q-39 -367 -38 -500v-26v-25q0 -20 -8.5 -60t-8.5 -61q0 -68 55 -67q8 0 27 2h25q51 0 51 -60q0 -57 -65.5 -82.5t-69.5 -48.5q-23 -197 -43 -254q-45 -121 -168 -192q-53 -29 -123 -29q-78 0 -141 45 q-72 49 -72 127zM23 1317q0 -29 22.5 -48.5t50.5 -19.5q25 0 43 15q31 27 107 79q43 31 94 93q-8 4 -8 12q0 4 3 12t3 15q0 12 -24.5 35.5t-39.5 23.5q4 0 -12 -9t-121 -77q-118 -78 -118 -131z" />
<glyph unicode="&#xff;" horiz-adv-x="618" d="M-6 -127q0 57 45 70q55 14 43 14q20 0 43 -43q29 -53 37 -61q37 -33 63 -33q68 0 115 94q37 80 37 154q0 88 -10 114q-2 10 -33 17q-39 8 -43 10q-10 6 -35 15t-70 36q-121 145 -147 496q-12 174 -12 309q0 61 73 61q47 0 86 -22q-4 -180 -4 -213q0 -336 115 -502 q6 -10 70 -27q0 2 14 353q8 213 45 350q12 49 80 49q33 0 67 -10q-39 -367 -38 -500v-26v-25q0 -20 -8.5 -60t-8.5 -61q0 -68 55 -67q8 0 27 2h25q51 0 51 -60q0 -57 -65.5 -82.5t-69.5 -48.5q-23 -197 -43 -254q-45 -121 -168 -192q-53 -29 -123 -29q-78 0 -141 45 q-72 49 -72 127z" />
<glyph unicode="&#x152;" horiz-adv-x="1669" d="M0 467q0 303 121 494q25 41 91.5 101t90.5 97q-2 4 -10 16.5t-8 16.5q0 6 3 23.5t3 25.5q0 35 4 43q14 27 55 27q25 0 43 -11q10 -10 33 -26q203 -156 215 -166q117 -104 160 -215q12 -33 12 -39q0 -41 -12 -156q-47 -401 -269 -569q-72 -55 -174 -55q-115 0 -206 51 q-102 57 -129 160q-23 82 -23 182zM178 518q0 -104 25 -192q23 -74 92 -99q49 -18 76 -18q35 0 63 27q94 84 150 223q51 129 51 264q0 113 -53 182l-131 139q-129 -18 -209 -213q-64 -157 -64 -313zM944 598q0 96 4 104q12 4 37 15q45 20 45 162q0 25 -6 63q-6 49 -8 62 q-5 50 -5 84q0 26 3 42q14 104 14 117q2 25 43 44.5t68 19.5q57 0 67 -21q6 -8 6 -71q0 -43 88 -43q33 0 98.5 3t96.5 3q176 0 176 -37q0 -74 -12 -86q-28 -32 -135 -32q-18 0 -37 1q-127 6 -158 6q-2 0 -90 -16q-12 -12 -41 -23q-8 -2 -8 -47q0 -25 5 -69.5t5 -67.5 q0 -8 -3 -25.5t-3 -25.5q0 -37 37 -37t108.5 15.5t108.5 15.5q98 0 104 -47q1 -6 1 -12q0 -73 -128 -103l-202 -41q-25 -25 -25 -51q0 -43 10 -135q12 -102 25 -136q33 -33 41 -32q51 0 145 36.5t144 36.5q25 0 51 -25.5t26 -54.5q0 -55 -135 -94l-188 -41 q-164 -43 -320 -43q-35 0 -34 72q0 35 13 55.5t38.5 23.5t32.5 13q11 19 10 78v20q-4 106 -6 138q-8 94 -27 133q-12 27 -55 26q-25 0 -25 27z" />
<glyph unicode="&#x153;" horiz-adv-x="1572" d="M6 655q0 244 139 310q106 49 252 49q182 0 226 -84q78 -150 77 -295q0 -195 -143 -273q-68 -39 -174 -38q-160 0 -293 122q-84 76 -84 209zM176 686q0 -94 67.5 -162.5t162.5 -68.5q125 0 124 153q0 70 -26 160q-35 113 -119 113q-14 0 -42 2t-42 2q-63 0 -86 -39 q-39 -78 -39 -160zM850 442q0 41 20 185q23 162 91 276q88 152 223 152q51 0 92 -15q31 -8 76 -32q78 -84 108 -185v-15q0 -40 8 -89q4 -6 36 -18.5t36 -23.5t4 -24q0 -61 -49 -80q-33 -10 -143 -10q-47 0 -137.5 11.5t-137.5 11.5q-23 0 -43 -2q-25 -31 -24 -82 q0 4 16 -131q12 -100 66 -135q109 -74 149 -74q51 0 84 32.5t33 84.5q0 10 -2 28.5t-2 28.5q0 25 57 49q10 4 29 4q82 0 82 -115q0 -135 -90 -194q-112 -76 -183 -76h-10q-68 4 -195 68q-98 49 -149 161q-45 94 -45 209zM1087 762q0 -23 21 -23q29 0 85 -10t85 -10 q6 0 21.5 9t15.5 13q-18 100 -33 123q-18 16 -39 33q-8 8 -61 8q-29 0 -62 -56t-33 -87z" />
<glyph unicode="&#x178;" horiz-adv-x="784" d="M0 1200q0 37 28.5 60.5t65.5 23.5q49 0 129 -72l113 -108q39 -37 84 -70q47 47 67 131q18 74 33 101q31 45 88 45q63 0 67.5 -19.5t4.5 -44.5q0 -70 -41 -170q-61 -154 -66 -168q20 -35 113 -100q76 -53 74 -96l-2 -8q0 -20 -25 -39q-66 -49 -90 -50q-16 0 -68 35 q-23 18 -57 29q-31 -70 -70.5 -251t-39.5 -253q0 -12 6 -34.5t6 -35.5q0 -6 -12 -36q-10 -23 -19.5 -35t-30.5 -17q-86 -18 -96 -18q-27 0 -31 25.5t-4 70.5q0 94 37 250q43 182 51 248q4 33 33 100q29 61 29 99q0 70 -98 151l-181 135q-98 74 -98 121z" />
<glyph unicode="&#x2c6;" horiz-adv-x="495" d="M23 1421q0 25 18 41q43 37 65 60q12 12 105 98q78 -8 101.5 -21.5t64.5 -74.5l41 -62l31 -27q16 -15 16 -32q0 -25 -27.5 -48.5t-52.5 -23.5q-43 0 -63 45l-25 54l-39 40q-31 -12 -88 -57q-43 -35 -86 -35q-61 0 -61 43z" />
<glyph unicode="&#x2dc;" horiz-adv-x="550" d="M-254 195q0 68 59 131q37 41 78 41h8q6 0 17.5 3t19.5 3q20 0 57.5 -20.5t51.5 -39.5q18 -27 41 -53q2 -2 16 -2q18 0 21 16v29q2 16 12 27.5t43 11.5q66 0 66 -40t-19 -91q-16 -45 -53 -64l6 -4q-78 -20 -88 -20q-76 0 -115 67q-12 25 -18 31t-27 19l-8 4q-4 0 -16 -4 q-18 -4 -27.5 -42t-46.5 -51q-10 -2 -19 -4q-20 0 -39.5 17t-19.5 35z" />
<glyph unicode="&#x2013;" horiz-adv-x="1024" d="M205 512v205h614v-205h-614z" />
<glyph unicode="&#x2014;" horiz-adv-x="2048" d="M205 512v205h1638v-205h-1638z" />
<glyph unicode="&#x2018;" horiz-adv-x="352" d="M231 1010q0 20 7 53q8 41 8 53q2 41 2 82q2 49 22 76q25 37 72 37q18 0 23 -15q27 -76 26 -155q0 -61 -26 -127q-29 -76 -80 -76q-54 0 -54 72z" />
<glyph unicode="&#x2019;" horiz-adv-x="352" d="M231 1010q0 20 7 53q8 41 8 53q2 41 2 82q2 49 22 76q25 37 72 37q18 0 23 -15q27 -76 26 -155q0 -61 -26 -127q-29 -76 -80 -76q-54 0 -54 72z" />
<glyph unicode="&#x201c;" horiz-adv-x="352" d="M0 1196q0 37 26.5 61.5t63.5 24.5t49 -31q29 -66 29 -196q0 -35 -31 -63.5t-65 -28.5q-39 0 -45 34q0 -2 0 64q0 25 -13.5 68.5t-13.5 66.5zM231 1010q0 20 7 53q8 41 8 53q2 41 2 82q2 49 22 76q25 37 72 37q18 0 23 -15q27 -76 26 -155q0 -61 -26 -127q-29 -76 -80 -76 q-54 0 -54 72z" />
<glyph unicode="&#x201d;" horiz-adv-x="352" d="M0 1196q0 37 26.5 61.5t63.5 24.5t49 -31q29 -66 29 -196q0 -35 -31 -63.5t-65 -28.5q-39 0 -45 34q0 -2 0 64q0 25 -13.5 68.5t-13.5 66.5zM231 1010q0 20 7 53q8 41 8 53q2 41 2 82q2 49 22 76q25 37 72 37q18 0 23 -15q27 -76 26 -155q0 -61 -26 -127q-29 -76 -80 -76 q-54 0 -54 72z" />
<glyph unicode="&#x2022;" horiz-adv-x="813" d="M0 705q0 57 12 114l60 195q10 43 106 67q66 23 144 23q137 0 272 -72q127 -68 127 -264q0 -53 -10 -113q-37 -205 -351 -379q-22 -11 -38.5 -11t-28.5 11q-45 68 -68 68q-70 10 -145 107q-80 104 -80 254z" />
<glyph unicode="&#x2026;" horiz-adv-x="1216" d="M-4 117q0 68 90 147q29 23 47 47q27 31 66 31q41 0 84 -42t53 -83q4 -16 4 -47q0 -74 -52 -122t-126 -48q-53 0 -107 31q-59 37 -59 86zM401 117q0 68 91 147q29 23 47 47q27 31 65 31q41 0 84 -42t53 -83q4 -16 4 -47q0 -74 -52 -122t-126 -48q-53 0 -106 31 q-60 37 -60 86zM807 117q0 68 90 147q29 23 47 47q27 31 66 31q41 0 84 -42t53 -83q4 -16 4 -47q0 -74 -52 -122t-126 -48q-53 0 -107 31q-59 37 -59 86z" />
<glyph unicode="&#x2039;" horiz-adv-x="749" d="M0 631q0 6 2 10q14 18 14 72q0 18 52 43l213 106q119 63 202 127q12 20 43 45q80 23 99 23q41 0 61 -39q2 -4 21 -21q12 -12 12 -24t-17.5 -47t-29.5 -39q-12 -10 -37 -10q-4 0 -14.5 2t-14.5 2q-8 0 -7 -10.5t-7 -12.5q-25 -2 -84 -20q-33 -14 -111 -66 q-68 -45 -110 -59q-18 -16 -19 -29q0 -31 256 -246l74 -67q12 -12 12 -25q0 -29 -35.5 -57.5t-64.5 -28.5q-63 0 -207 105q-125 90 -184 159q-12 12 -41 22.5t-39 20.5v29q0 10 -19.5 17.5t-19.5 17.5z" />
<glyph unicode="&#x203a;" horiz-adv-x="792" d="M0 338q0 31 14 47q27 33 97 68q86 45 108 61l160 102q100 63 137 125q4 8 4 17q0 23 -53 59l-74 47q-29 25 -75 47.5l-87 44.5q-25 14 -65 45q-16 12 -16 29q0 29 24 62q31 16 55 16q51 0 125 -51q90 -61 123 -72l8 -31q4 -6 15 -6h10q6 2 10 2q8 0 10 -2q18 -16 63 -48 l136 -97q35 -29 35 -58q0 -14 -12 -26q-27 -23 -88 -57q-72 -41 -95 -56l-207 -155l-120 -82l-80 -64q-53 -39 -94 -39q-68 0 -68 72z" />
<glyph unicode="&#x2122;" horiz-adv-x="1703" d="M0 1006q0 47 41 65l59 12q41 8 47 31q12 63 21 168q18 35 36.5 42t65.5 7q68 0 68 -84q0 -31 -12.5 -39t-12.5 -39q0 -23 4 -41q16 -20 20.5 -22t29.5 -2q23 0 68.5 7t68.5 7q90 0 90 -65q0 -27 -25.5 -43.5t-54.5 -16.5t-90.5 -7t-91.5 -7q-18 0 -23 -21q-2 -10 -4 -116 q-2 -141 -10 -363q-2 -35 -2 -71q0 -31 2 -92.5t2 -92.5q0 -117 -23 -184q-14 -39 -63 -39q-70 0 -78 47q-14 74 -14 203q0 98 14 321q18 256 21 322v12q2 29 -15 31l-86 12q-53 15 -53 58zM598 1071q0 61 59 62q29 0 115 -21q57 -14 94 -14q12 0 23 2q6 -6 20 -6 q0 -139 17 -207q29 -113 116 -158q51 0 56.5 51t44.5 148.5t43 150.5q2 4 33 31q18 14 18 45q0 18 -13.5 51t-13.5 49v5q25 49 84 49q31 0 43 -17q70 -119 140 -340l102 -358q70 -242 86 -516v-6q2 -27 -33 -49.5t-65 -22.5q-35 0 -41 33q-16 66 -27 170l-20 172 q-25 197 -86 336l-25 102q-14 61 -65 80q-14 0 -24.5 -15.5t-21.5 -27.5q-4 -29 -32 -129q-25 -80 -25 -131q0 -37 4 -47q8 -20 53 -60q39 -37 39 -65q0 -55 -88 -56q-12 0 -30 11q-39 8 -111 41q-25 18 -33 50t-18 66.5t-39 49.5q-10 4 -19 4q-43 0 -43 -78q0 -45 7.5 -136 t7.5 -137q0 -80 -12 -133q-10 -41 -78 -41q-55 0 -56 37q0 43 2 131v129q0 260 -26 469q-4 25 -55 80q-16 25 -50 70q-57 69 -57 96z" />
<glyph unicode="&#xe000;" horiz-adv-x="1020" d="M0 1020h1020v-1020h-1020v1020z" />
<glyph unicode="&#xfb01;" horiz-adv-x="1349" d="M0 543q0 31 6 45q10 8 68 24q43 14 45 37t2 39q0 43 -12.5 128t-12.5 128q0 158 135 295q72 72 148 72q121 0 172 -60q113 -127 113 -254q0 -98 -62 -98q-35 0 -59.5 22.5t-36.5 75.5q-8 43 -19 86q-12 20 -36 56q-8 14 -35 14q-14 0 -51 -20q-109 -63 -109 -234 q0 -31 13.5 -86t13.5 -84q0 -49 18 -53t53 -4q72 0 209 38t211 38q94 0 94 -58q0 -20 -8 -30.5t-24 -22.5q-61 -45 -252 -78q-61 -14 -181 -39q-49 -8 -79 -16q-14 -4 -15 -21q0 -29 4 -87t4 -87v-61q-2 -41 -2 -62q0 -23 2 -64.5t2 -64.5q0 -57 -98 -57q-49 0 -63 43 q-18 51 -19 133q0 29 3 86t3 86q0 70 -14 121q-12 -4 -29 -4q-102 0 -102 78zM874 1184q0 82 39 108q31 18 117 19q82 0 146.5 -59.5t64.5 -139.5q0 -10 -6 -26.5t-6 -26.5q0 -4 2 -8q4 -16 4 -33q0 -51 -44 -90t-95 -39q-55 0 -95 39q-127 125 -127 256zM1036 483 q0 41 2 90l6 117q14 68 72 84q8 2 16.5 7t20.5 5q74 0 74 -59q0 -20 -19 -59q-6 -47 -6 -101q0 -76 13.5 -223t13.5 -223q0 -45 -2 -55q-8 -66 -72 -66q-41 0 -67.5 17.5t-28.5 66.5l-15 199q-8 120 -8 200z" />
<glyph unicode="&#xfb02;" horiz-adv-x="1224" d="M0 543q0 31 6 45q10 8 68 24q43 14 45 37t2 39q0 43 -12.5 128t-12.5 128q0 158 135 295q72 72 148 72q121 0 172 -60q113 -127 113 -254q0 -98 -62 -98q-35 0 -59.5 22.5t-36.5 75.5q-8 43 -19 86q-12 20 -36 56q-8 14 -35 14q-14 0 -51 -20q-109 -63 -109 -234 q0 -31 13.5 -86t13.5 -84q0 -49 18 -53t53 -4q72 0 209 38t211 38q94 0 94 -58q0 -20 -8 -30.5t-24 -22.5q-61 -45 -252 -78q-61 -14 -181 -39q-49 -8 -79 -16q-14 -4 -15 -21q0 -29 4 -87t4 -87v-61q-2 -41 -2 -62q0 -23 2 -64.5t2 -64.5q0 -57 -98 -57q-49 0 -63 43 q-18 51 -19 133q0 29 3 86t3 86q0 70 -14 121q-12 -4 -29 -4q-102 0 -102 78zM924 199q0 111 17 332t17 331q0 27 -2 80v80q0 162 27 240q18 49 90 49q55 0 62 -43q0 -10 6 -150q6 -170 6 -317q0 -285 -23 -535q-6 -76 -26 -221q0 -6 -30 -25.5t-36 -19.5t-17 8t-18 8 q-8 0 -14 -14q-27 25 -55 66q-4 22 -4 131z" />
<glyph unicode="&#xfb03;" horiz-adv-x="2220" d="M0 543q0 31 6 45q10 8 68 24q43 14 45 37t2 39q0 43 -12.5 128t-12.5 128q0 158 135 295q72 72 148 72q121 0 172 -60q113 -127 113 -254q0 -98 -62 -98q-35 0 -59.5 22.5t-36.5 75.5q-8 43 -19 86q-12 20 -36 56q-8 14 -35 14q-14 0 -51 -20q-109 -63 -109 -234 q0 -31 13.5 -86t13.5 -84q0 -49 18 -53t53 -4q72 0 209 38t211 38q94 0 94 -58q0 -20 -8 -30.5t-24 -22.5q-61 -45 -252 -78q-61 -14 -181 -39q-49 -8 -79 -16q-14 -4 -15 -21q0 -29 4 -87t4 -87v-61q-2 -41 -2 -62q0 -23 2 -64.5t2 -64.5q0 -57 -98 -57q-49 0 -63 43 q-18 51 -19 133q0 29 3 86t3 86q0 70 -14 121q-12 -4 -29 -4q-102 0 -102 78zM870 543q0 31 7 45q10 8 67 24q43 14 45 37t2 39q0 43 -12 128t-12 128q0 158 135 295q72 72 147 72q121 0 172 -60q113 -127 113 -254q0 -98 -61 -98q-35 0 -59.5 22.5t-37.5 75.5q-8 43 -18 86 q-12 20 -37 56q-8 14 -35 14q-14 0 -51 -20q-109 -63 -109 -234q0 -31 13.5 -86t13.5 -84q0 -49 18.5 -53t53.5 -4q72 0 209 38t211 38q94 0 94 -58q0 -20 -8.5 -30.5t-24.5 -22.5q-61 -45 -252 -78q-61 -14 -180 -39q-49 -8 -80 -16q-14 -4 -14 -21q0 -29 4 -87t4 -87v-61 q-2 -41 -2 -62q0 -23 2 -64.5t2 -64.5q0 -57 -98 -57q-49 0 -64 43q-18 51 -18 133q0 29 3 86t3 86q0 70 -15 121q-12 -4 -28 -4q-103 0 -103 78zM1745 1184q0 82 39 108q31 18 117 19q82 0 146 -59.5t64 -139.5q0 -10 -6 -26.5t-6 -26.5q0 -4 2 -8q4 -16 4 -33 q0 -51 -44 -90t-95 -39q-55 0 -94 39q-127 125 -127 256zM1907 483q0 41 2 90l6 117q14 68 72 84q8 2 16 7t20 5q74 0 74 -59q0 -20 -18 -59q-6 -47 -6 -101q0 -76 13 -223t13 -223q0 -45 -2 -55q-8 -66 -72 -66q-41 0 -67.5 17.5t-28.5 66.5q-2 27 -14 199q-8 120 -8 200z " />
<glyph unicode="&#xfb04;" horiz-adv-x="2095" d="M0 543q0 31 6 45q10 8 68 24q43 14 45 37t2 39q0 43 -12.5 128t-12.5 128q0 158 135 295q72 72 148 72q121 0 172 -60q113 -127 113 -254q0 -98 -62 -98q-35 0 -59.5 22.5t-36.5 75.5q-8 43 -19 86q-12 20 -36 56q-8 14 -35 14q-14 0 -51 -20q-109 -63 -109 -234 q0 -31 13.5 -86t13.5 -84q0 -49 18 -53t53 -4q72 0 209 38t211 38q94 0 94 -58q0 -20 -8 -30.5t-24 -22.5q-61 -45 -252 -78q-61 -14 -181 -39q-49 -8 -79 -16q-14 -4 -15 -21q0 -29 4 -87t4 -87v-61q-2 -41 -2 -62q0 -23 2 -64.5t2 -64.5q0 -57 -98 -57q-49 0 -63 43 q-18 51 -19 133q0 29 3 86t3 86q0 70 -14 121q-12 -4 -29 -4q-102 0 -102 78zM870 543q0 31 7 45q10 8 67 24q43 14 45 37t2 39q0 43 -12 128t-12 128q0 158 135 295q72 72 147 72q121 0 172 -60q113 -127 113 -254q0 -98 -61 -98q-35 0 -59.5 22.5t-37.5 75.5q-8 43 -18 86 q-12 20 -37 56q-8 14 -35 14q-14 0 -51 -20q-109 -63 -109 -234q0 -31 13.5 -86t13.5 -84q0 -49 18.5 -53t53.5 -4q72 0 209 38t211 38q94 0 94 -58q0 -20 -8.5 -30.5t-24.5 -22.5q-61 -45 -252 -78q-61 -14 -180 -39q-49 -8 -80 -16q-14 -4 -14 -21q0 -29 4 -87t4 -87v-61 q-2 -41 -2 -62q0 -23 2 -64.5t2 -64.5q0 -57 -98 -57q-49 0 -64 43q-18 51 -18 133q0 29 3 86t3 86q0 70 -15 121q-12 -4 -28 -4q-103 0 -103 78zM1794 199q0 111 17.5 332t17.5 331q0 27 -2 80v80q0 162 26 240q18 49 91 49q55 0 61 -43q0 -10 6 -150q6 -170 6 -317 q0 -285 -22 -535q-6 -76 -27 -221q0 -6 -29.5 -25.5t-36 -19.5t-17.5 8t-17 8q-8 0 -15 -14q-27 25 -55 66q-4 22 -4 131z" />
</font>
</defs>
</svg>
